{"glyphs":{"0":{"ha":477,"x_min":0,"x_max":477,"o":"m 240 -13 l 240 -13 q 180 -13 134 14 q 87 41 61 88 q 35 135 35 196 l 35 196 q 35 256 61 302 q 87 347 134 373 q 181 399 241 399 l 241 399 q 301 399 346 373 q 391 346 417 300 q 442 253 442 193 l 442 193 q 442 133 417 87 q 391 40 346 14 q 300 -13 240 -13 z m 251 1 l 251 1 q 313 1 343 51 q 373 101 373 181 l 373 181 q 373 252 353 297 q 333 342 301 364 q 268 385 230 385 l 230 385 q 170 385 137 334 q 103 283 103 204 l 103 204 q 103 146 122 100 q 140 54 173 28 q 206 1 251 1 z"},"1":{"ha":332,"x_min":0,"x_max":332,"o":"m 138 81 l 138 305 q 138 334 133 349 q 127 364 109 369 q 90 374 52 374 l 52 374 q 49 374 49 380 q 49 386 52 386 l 52 386 q 75 386 104 385 q 133 384 166 384 l 166 384 q 199 384 229 385 q 258 386 280 386 l 280 386 q 283 386 283 380 q 283 374 280 374 l 280 374 q 245 374 226 369 q 207 364 201 349 q 194 334 194 305 l 194 305 l 194 81 q 194 52 200 37 q 205 22 224 17 q 243 12 280 12 l 280 12 q 283 12 283 6 q 283 0 280 0 l 280 0 q 258 0 229 1 q 199 2 166 2 l 166 2 q 134 2 105 1 q 75 0 52 0 l 52 0 q 49 0 49 6 q 49 12 52 12 l 52 12 q 88 12 107 17 q 125 22 132 37 q 138 52 138 81 l 138 81 z"},"2":{"ha":402,"x_min":0,"x_max":402,"o":"m 37 15 l 37 15 q 101 66 145 105 q 188 144 214 175 q 240 205 252 232 q 263 259 263 286 l 263 286 q 263 327 239 352 q 214 377 175 377 l 175 377 q 135 377 107 346 q 79 314 61 253 l 61 253 q 60 251 54 252 q 48 253 49 256 l 49 256 l 88 408 q 89 411 95 410 q 101 408 99 406 l 99 406 q 95 389 101 384 q 106 379 113 379 l 113 379 q 128 379 154 389 q 179 399 216 399 l 216 399 q 268 399 297 372 q 326 344 326 300 l 326 300 q 326 273 313 247 q 300 220 274 192 q 248 163 209 130 q 169 97 116 56 l 116 56 q 112 53 114 51 q 116 49 120 49 l 120 49 q 193 49 238 51 q 283 52 308 58 q 333 63 345 77 q 356 90 361 114 l 361 114 q 362 116 368 116 q 373 115 373 113 l 373 113 l 358 11 q 358 7 356 4 q 353 0 349 0 l 349 0 q 278 0 198 0 q 118 0 44 0 l 44 0 q 40 0 37 6 q 34 11 37 15 z"},"3":{"ha":389,"x_min":0,"x_max":389,"o":"m 59 -275 l 59 -275 q 55 -276 53 -270 q 50 -265 54 -264 l 54 -264 q 120 -243 163 -214 q 206 -185 232 -151 q 257 -117 267 -83 q 277 -50 277 -20 l 277 -20 q 277 12 266 42 q 255 71 231 90 q 206 108 165 108 l 165 108 q 153 108 141 107 q 129 106 116 102 l 116 102 q 113 101 111 107 q 109 113 112 114 l 112 114 q 192 135 224 171 q 255 207 255 268 l 255 268 q 255 317 235 347 q 214 377 168 377 l 168 377 q 125 377 94 349 q 63 321 45 258 l 45 258 q 44 256 38 257 q 32 258 33 261 l 33 261 l 70 407 q 72 410 78 409 q 83 407 82 405 l 82 405 q 78 388 84 383 q 90 377 97 377 l 97 377 q 112 377 138 388 q 164 399 201 399 l 201 399 q 259 399 289 364 q 319 329 319 285 l 319 285 q 319 248 302 214 q 285 179 253 154 q 221 128 176 119 l 176 119 l 191 132 q 245 131 280 111 q 315 91 332 59 q 349 27 349 -9 l 349 -9 q 349 -55 319 -106 q 288 -158 224 -202 q 159 -247 59 -275 z"},"4":{"ha":451,"x_min":0,"x_max":451,"o":"m 29 8 l 29 8 q 25 8 22 12 q 18 16 22 20 l 22 20 l 314 396 q 316 399 323 398 q 329 397 329 392 l 329 392 l 329 -153 q 329 -164 321 -167 l 321 -167 l 279 -188 q 270 -193 270 -182 l 270 -182 l 270 316 l 302 338 l 73 45 q 70 42 72 40 q 74 38 78 38 l 78 38 q 135 38 180 39 q 224 39 261 40 q 298 41 335 42 q 371 43 414 44 l 414 44 q 417 44 418 34 q 418 23 417 12 q 416 1 413 1 l 413 1 q 374 3 335 5 q 296 6 253 7 q 209 7 155 8 q 100 8 29 8 z"},"5":{"ha":409,"x_min":0,"x_max":409,"o":"m 79 173 l 78 196 q 177 196 237 172 q 297 148 324 106 q 351 64 351 9 l 351 9 q 351 -48 322 -94 q 293 -141 231 -184 q 169 -228 68 -275 l 68 -275 q 64 -276 61 -271 q 58 -266 62 -264 l 62 -264 q 149 -221 198 -178 q 246 -136 266 -93 q 285 -51 285 -8 l 285 -8 q 285 74 230 121 q 174 167 68 167 l 68 167 q 56 167 58 179 l 58 179 l 90 357 q 91 364 93 366 q 95 367 103 368 l 103 368 q 189 378 237 385 q 285 391 307 396 q 329 400 336 407 q 342 413 345 423 l 345 423 q 346 426 352 426 q 357 425 356 421 l 356 421 l 336 348 q 332 335 326 333 q 320 330 308 330 l 308 330 l 119 326 q 106 326 104 311 l 104 311 l 79 173 z"},"6":{"ha":465,"x_min":0,"x_max":465,"o":"m 299 283 l 299 283 q 347 283 376 265 q 404 247 417 219 q 430 190 430 159 l 430 159 q 430 112 403 73 q 376 33 331 10 q 286 -13 230 -13 l 230 -13 q 146 -13 97 45 q 47 102 47 208 l 47 208 q 47 301 89 391 q 130 480 210 552 q 289 623 400 661 l 400 661 q 404 662 406 657 q 408 652 405 650 l 405 650 q 307 606 242 536 q 176 465 144 384 q 111 303 111 225 l 111 225 q 111 165 129 116 q 146 66 179 36 q 211 6 258 6 l 258 6 q 306 6 336 40 q 366 73 366 132 l 366 132 q 366 184 342 220 q 317 255 265 255 l 265 255 q 238 255 216 244 q 193 233 165 208 l 165 208 q 163 205 158 209 q 153 212 155 215 l 155 215 q 181 248 218 266 q 254 283 299 283 z"},"7":{"ha":429,"x_min":0,"x_max":429,"o":"m 391 373 l 163 -218 q 159 -228 154 -233 q 149 -238 142 -242 l 142 -242 l 92 -275 q 90 -276 87 -273 q 84 -270 85 -268 l 85 -268 l 351 329 q 354 336 346 336 l 346 336 q 262 336 207 335 q 152 334 120 330 q 88 326 72 319 q 55 311 48 299 q 40 287 35 268 l 35 268 q 34 265 28 266 q 22 267 23 271 l 23 271 l 58 413 q 60 415 66 415 q 71 414 70 412 l 70 412 q 66 395 75 391 q 84 386 117 386 l 117 386 q 132 386 163 386 q 194 386 233 386 q 272 386 312 386 q 351 386 382 386 l 382 386 q 387 386 390 382 q 393 377 391 373 l 391 373 z"},"8":{"ha":489,"x_min":0,"x_max":489,"o":"m 283 335 l 278 341 q 306 367 321 394 q 336 421 336 453 l 336 453 q 336 500 308 529 q 280 558 238 558 l 238 558 q 205 558 182 539 q 158 519 158 484 l 158 484 q 158 452 177 428 q 196 404 227 385 q 258 366 291 347 l 291 347 q 331 325 369 301 q 406 277 430 244 q 453 211 453 162 l 453 162 q 453 111 425 72 q 396 32 348 10 q 299 -13 242 -13 l 242 -13 q 182 -13 138 10 q 94 33 71 70 q 47 107 47 150 l 47 150 q 47 198 73 240 q 98 281 138 312 q 178 343 221 358 l 221 358 l 227 350 q 173 325 143 280 q 112 234 112 176 l 112 176 q 112 132 132 93 q 152 54 188 30 q 223 5 270 5 l 270 5 q 306 5 335 21 q 363 36 380 64 q 396 92 396 130 l 396 130 q 396 180 372 213 q 348 246 312 270 q 275 293 236 313 l 236 313 q 202 332 172 352 q 141 371 122 396 q 103 420 103 454 l 103 454 q 103 496 128 522 q 153 548 190 561 q 226 574 259 574 l 259 574 q 301 574 331 558 q 361 542 377 518 q 393 494 393 469 l 393 469 q 393 435 364 400 q 335 364 283 335 l 283 335 z"},"9":{"ha":465,"x_min":0,"x_max":465,"o":"m 177 109 l 177 109 q 125 109 94 130 q 63 151 49 183 q 35 214 35 244 l 35 244 q 35 290 59 325 q 83 359 125 379 q 166 399 217 399 l 217 399 q 279 399 324 370 q 369 341 394 289 q 418 236 418 166 l 418 166 q 418 99 395 32 q 371 -36 326 -96 q 281 -156 215 -202 q 149 -249 65 -275 l 65 -275 q 62 -276 60 -271 q 57 -266 61 -264 l 61 -264 q 134 -234 190 -187 q 245 -140 282 -84 q 318 -28 336 32 q 354 91 354 146 l 354 146 q 354 182 346 223 q 338 263 320 299 q 302 335 273 358 q 243 380 201 380 l 201 380 q 154 380 127 350 q 99 319 99 263 l 99 263 q 99 211 127 174 q 154 137 209 137 l 209 137 q 235 137 256 146 q 276 154 300 174 l 300 174 q 303 177 308 174 q 313 170 311 167 l 311 167 q 261 109 177 109 z"}," ":{"ha":234,"x_min":0,"x_max":234,"o":""},"!":{"ha":247,"x_min":0,"x_max":247,"o":"m 78 620 l 78 620 q 78 622 85 625 q 92 627 103 628 q 113 629 124 629 l 124 629 q 135 629 146 628 q 157 627 164 625 q 170 622 169 620 l 169 620 q 157 554 149 480 q 141 405 137 331 q 133 256 129 189 l 129 189 q 129 188 126 187 q 122 186 118 187 q 114 188 114 189 l 114 189 q 112 256 108 331 q 104 405 97 480 q 90 554 78 620 z m 119 -11 l 119 -11 q 99 -11 87 1 q 75 12 75 32 l 75 32 q 75 51 87 63 q 99 74 119 74 l 119 74 q 140 74 151 63 q 162 51 162 32 l 162 32 q 162 12 151 1 q 140 -11 119 -11 z"},"\"":{"ha":283,"x_min":0,"x_max":283,"o":"m 55 365 l 55 365 l 43 608 q 43 617 55 624 q 67 630 82 635 q 97 639 109 640 q 120 641 119 636 l 119 636 l 67 366 q 66 364 61 363 q 55 362 55 365 z m 198 365 l 198 365 l 186 608 q 185 617 197 624 q 209 630 225 635 q 240 639 252 640 q 263 641 262 636 l 262 636 l 209 366 q 208 364 203 363 q 198 362 198 365 z"},"#":{"ha":526,"x_min":0,"x_max":526,"o":"m 238 475 l 140 -79 q 140 -82 131 -82 q 122 -82 113 -79 q 104 -77 104 -75 l 104 -75 l 203 482 q 203 485 212 484 q 221 483 230 481 q 239 478 238 475 l 238 475 z m 425 475 l 327 -79 q 327 -82 318 -82 q 309 -82 300 -79 q 291 -77 291 -75 l 291 -75 l 390 482 q 390 485 399 484 q 408 483 417 481 q 426 478 425 475 l 425 475 z m 428 76 l 63 76 q 60 76 59 86 q 58 96 59 106 q 60 116 62 116 l 62 116 l 428 116 q 431 116 432 106 q 433 96 432 86 q 431 76 428 76 l 428 76 z m 463 275 l 98 275 q 95 275 94 285 q 93 295 94 305 q 95 314 97 314 l 97 314 l 463 314 q 466 314 467 305 q 468 295 467 285 q 466 275 463 275 l 463 275 z"},"$":{"ha":411,"x_min":0,"x_max":411,"o":"m 203 -102 l 203 -102 l 203 561 q 203 566 209 568 q 214 569 219 568 q 224 566 224 561 l 224 561 l 224 -102 q 224 -106 219 -107 q 214 -109 209 -107 q 203 -106 203 -102 z m 123 386 l 123 386 q 123 353 140 331 q 157 309 185 293 q 212 276 241 261 l 241 261 q 272 245 301 227 q 330 209 348 184 q 366 159 366 122 l 366 122 q 366 85 346 55 q 326 24 289 6 q 251 -12 198 -12 l 198 -12 q 166 -12 135 -3 q 104 5 79 23 l 79 23 q 74 25 73 30 q 71 35 70 42 l 70 42 l 59 141 q 58 146 64 147 q 70 147 71 143 l 71 143 q 80 106 102 74 q 124 42 155 23 q 185 4 220 4 l 220 4 q 240 4 261 12 q 282 20 296 39 q 309 57 309 89 l 309 89 q 309 124 292 148 q 274 172 247 190 q 219 208 189 224 l 189 224 q 159 240 132 258 q 104 275 87 300 q 70 324 70 359 l 70 359 q 70 399 92 426 q 113 452 147 466 q 181 480 221 480 l 221 480 q 243 480 269 475 q 294 470 320 457 l 320 457 q 329 453 332 450 q 334 447 335 440 l 335 440 l 342 353 q 342 349 337 348 q 331 347 330 351 l 330 351 q 327 368 316 388 q 305 408 289 426 q 272 443 251 454 q 229 465 203 465 l 203 465 q 164 465 144 443 q 123 420 123 386 z"},"%":{"ha":574,"x_min":0,"x_max":574,"o":"m 150 303 l 150 303 q 97 303 62 341 q 27 378 27 433 l 27 433 q 27 468 43 497 q 58 526 86 543 q 114 560 150 560 l 150 560 q 204 560 237 522 q 270 484 270 430 l 270 430 q 270 377 237 340 q 203 303 150 303 z m 157 314 l 157 314 q 193 314 203 346 q 212 377 212 423 l 212 423 q 212 549 144 549 l 144 549 q 107 549 96 516 q 85 482 85 436 l 85 436 q 85 385 101 350 q 116 314 157 314 z m 427 -5 l 427 -5 q 391 -5 363 13 q 335 30 320 60 q 304 89 304 125 l 304 125 q 304 160 320 189 q 335 218 363 236 q 391 253 427 253 l 427 253 q 463 253 490 236 q 517 218 532 189 q 547 159 547 123 l 547 123 q 547 69 514 32 q 480 -5 427 -5 z m 434 7 l 434 7 q 470 7 480 38 q 489 69 489 116 l 489 116 q 489 241 421 241 l 421 241 q 385 241 374 208 q 363 175 363 129 l 363 129 q 363 78 378 43 q 393 7 434 7 z m 477 537 l 106 -6 q 105 -7 99 -4 q 92 -2 87 2 q 81 5 82 7 l 82 7 l 453 551 q 455 553 461 550 q 467 547 473 543 q 478 539 477 537 l 477 537 z"},"&":{"ha":697,"x_min":0,"x_max":697,"o":"m 64 137 l 64 137 q 64 183 86 218 q 108 253 143 282 q 177 311 216 338 q 255 364 290 393 q 324 422 346 455 q 368 488 368 531 l 368 531 q 368 576 344 601 q 320 625 281 625 l 281 625 q 243 625 223 602 q 202 579 202 529 l 202 529 q 202 477 224 424 q 246 370 285 318 q 324 266 375 217 q 425 168 481 126 l 481 126 q 544 79 601 50 q 658 20 697 12 l 697 12 q 702 11 701 6 q 700 0 697 0 l 697 0 q 675 0 646 0 q 617 0 589 0 l 589 0 q 576 0 555 8 q 534 16 502 37 q 469 57 422 96 l 422 96 q 372 136 324 183 q 276 230 237 281 q 197 331 173 379 l 173 379 q 160 408 152 435 q 144 462 144 487 l 144 487 q 144 531 165 567 q 186 603 223 625 q 260 646 310 646 l 310 646 q 337 646 364 638 q 391 629 409 608 q 427 586 427 547 l 427 547 q 427 504 406 473 q 384 441 350 415 q 315 388 277 364 q 239 339 205 312 q 171 284 150 251 q 128 217 128 172 l 128 172 q 128 130 150 95 q 171 59 209 39 q 247 18 295 18 l 295 18 q 342 18 382 39 q 422 59 451 94 q 479 128 495 173 q 510 217 510 265 l 510 265 q 510 297 498 317 q 485 337 439 337 l 439 337 q 436 337 436 343 q 435 349 439 349 l 439 349 l 648 350 q 652 350 652 344 q 652 338 648 338 l 648 338 q 613 338 596 332 q 579 325 572 312 q 565 299 559 279 l 559 279 q 550 245 535 206 q 519 166 496 128 q 472 89 438 58 q 404 26 358 7 q 311 -12 250 -12 l 250 -12 q 186 -12 145 10 q 103 31 84 66 q 64 100 64 137 z"},"'":{"ha":140,"x_min":0,"x_max":140,"o":"m 55 365 l 55 365 l 43 608 q 43 617 55 624 q 67 630 82 635 q 97 639 109 640 q 120 641 119 636 l 119 636 l 67 366 q 66 364 61 363 q 55 362 55 365 z"},"(":{"ha":309,"x_min":0,"x_max":309,"o":"m 65 304 l 65 304 q 65 398 90 480 q 114 562 161 626 q 207 689 274 725 l 274 725 q 276 726 278 724 q 280 721 278 719 l 278 719 q 202 647 168 543 q 134 439 134 304 l 134 304 q 134 169 168 65 q 202 -39 278 -111 l 278 -111 q 280 -112 278 -115 q 276 -118 274 -117 l 274 -117 q 207 -80 161 -17 q 114 46 90 129 q 65 211 65 304 z"},")":{"ha":309,"x_min":0,"x_max":309,"o":"m 244 304 l 244 304 q 244 211 220 129 q 195 46 149 -17 q 102 -81 35 -117 l 35 -117 q 34 -118 32 -115 q 29 -113 31 -111 l 31 -111 q 107 -39 141 65 q 175 169 175 304 l 175 304 q 175 439 141 543 q 107 647 31 719 l 31 719 q 29 721 32 724 q 34 726 35 725 l 35 725 q 102 689 149 626 q 195 562 220 480 q 244 398 244 304 z"},"*":{"ha":448,"x_min":0,"x_max":448,"o":"m 214 485 l 137 383 q 133 377 119 379 q 105 380 90 386 q 74 392 64 398 q 54 403 58 405 l 58 405 l 206 491 q 208 493 212 490 q 216 487 214 485 l 214 485 z m 269 314 l 269 314 l 233 481 q 232 483 236 487 q 240 490 241 488 l 241 488 l 315 382 q 320 376 314 364 q 308 351 298 338 q 287 324 279 317 q 270 310 269 314 z m 204 511 l 204 511 l 82 552 q 75 555 73 569 q 70 583 71 600 q 71 616 74 627 q 76 638 79 635 l 79 635 l 207 520 q 210 519 208 515 q 206 510 204 511 z m 422 486 l 422 486 l 251 503 q 249 503 248 508 q 247 512 248 513 l 248 513 l 371 551 q 378 553 389 544 q 399 534 409 521 q 418 507 423 497 q 427 486 422 486 z m 226 529 l 226 529 l 228 657 q 228 665 240 672 q 252 678 268 683 q 284 687 296 688 q 307 689 305 685 l 305 685 l 236 529 q 235 526 231 526 q 226 526 226 529 z"},"+":{"ha":398,"x_min":0,"x_max":398,"o":"m 364 170 l 34 170 q 31 170 30 180 q 29 190 30 200 q 31 209 33 209 l 33 209 l 364 209 q 367 209 368 200 q 369 190 368 180 q 367 170 364 170 l 364 170 z m 219 354 l 219 25 q 219 22 209 21 q 199 20 189 21 q 179 21 179 23 l 179 23 l 179 354 q 179 357 189 358 q 199 359 209 358 q 219 357 219 354 l 219 354 z"},",":{"ha":222,"x_min":0,"x_max":222,"o":"m 102 71 l 102 71 q 132 71 149 50 q 166 28 166 -17 l 166 -17 q 166 -63 146 -103 q 126 -143 91 -181 l 91 -181 q 87 -184 84 -180 q 81 -177 83 -174 l 83 -174 q 107 -141 114 -112 q 121 -83 121 -52 l 121 -52 q 121 -23 113 -6 q 104 10 93 20 l 93 20 l 131 27 q 132 10 122 1 q 112 -8 96 -8 l 96 -8 q 77 -8 67 3 q 56 13 56 31 l 56 31 q 56 50 68 61 q 79 71 102 71 z"},"-":{"ha":323,"x_min":0,"x_max":323,"o":"m 291 212 l 32 165 q 29 165 28 176 q 27 186 28 197 q 28 207 30 207 l 30 207 l 291 254 q 294 255 295 245 q 296 234 295 224 q 294 213 291 212 l 291 212 z"},".":{"ha":197,"x_min":0,"x_max":197,"o":"m 99 -11 l 99 -11 q 79 -11 67 1 q 55 12 55 32 l 55 32 q 55 51 67 63 q 79 74 99 74 l 99 74 q 120 74 131 63 q 142 51 142 32 l 142 32 q 142 12 131 1 q 120 -11 99 -11 z"},"/":{"ha":341,"x_min":0,"x_max":341,"o":"m 315 718 l 64 -163 q 63 -166 54 -164 q 44 -162 35 -158 q 26 -154 26 -152 l 26 -152 l 278 730 q 280 733 290 731 q 299 729 308 725 q 317 721 315 718 l 315 718 z"},":":{"ha":197,"x_min":0,"x_max":197,"o":"m 99 -11 l 99 -11 q 79 -11 67 1 q 55 12 55 32 l 55 32 q 55 51 67 63 q 79 74 99 74 l 99 74 q 120 74 131 63 q 142 51 142 32 l 142 32 q 142 12 131 1 q 120 -11 99 -11 z m 99 270 l 99 270 q 79 270 67 282 q 55 293 55 313 l 55 313 q 55 332 67 344 q 79 355 99 355 l 99 355 q 120 355 131 344 q 142 332 142 313 l 142 313 q 142 293 131 282 q 120 270 99 270 z"},";":{"ha":224,"x_min":0,"x_max":224,"o":"m 104 71 l 104 71 q 134 71 151 50 q 168 28 168 -17 l 168 -17 q 168 -63 148 -103 q 128 -143 93 -181 l 93 -181 q 89 -184 86 -180 q 83 -177 85 -174 l 85 -174 q 109 -141 116 -112 q 122 -83 122 -52 l 122 -52 q 122 -23 114 -6 q 106 10 95 20 l 95 20 l 133 27 q 134 10 124 1 q 113 -8 98 -8 l 98 -8 q 79 -8 69 3 q 58 13 58 31 l 58 31 q 58 50 70 61 q 81 71 104 71 z m 101 270 l 101 270 q 81 270 69 282 q 57 293 57 313 l 57 313 q 57 332 69 344 q 81 355 101 355 l 101 355 q 122 355 133 344 q 144 332 144 313 l 144 313 q 144 293 133 282 q 122 270 101 270 z"},"<":{"ha":407,"x_min":0,"x_max":407,"o":"m 370 25 l 36 173 q 31 176 31 191 q 31 205 36 207 l 36 207 l 370 354 q 375 357 377 348 q 378 338 377 328 q 375 317 370 314 l 370 314 l 57 181 l 57 200 l 370 66 q 375 64 377 53 q 378 42 377 33 q 375 23 370 25 l 370 25 z"},"=":{"ha":468,"x_min":0,"x_max":468,"o":"m 434 100 l 34 100 q 31 100 30 110 q 29 119 30 129 q 31 139 33 139 l 33 139 l 434 139 q 437 139 438 129 q 439 119 438 110 q 437 100 434 100 l 434 100 z m 434 240 l 34 240 q 31 240 30 250 q 29 260 30 270 q 31 279 33 279 l 33 279 l 434 279 q 437 279 438 270 q 439 260 438 250 q 437 240 434 240 l 434 240 z"},">":{"ha":407,"x_min":0,"x_max":407,"o":"m 37 354 l 371 206 q 376 203 376 189 q 376 174 371 172 l 371 172 l 37 25 q 33 23 32 32 q 30 41 32 52 q 33 63 37 65 l 37 65 l 350 198 l 350 179 l 37 313 q 33 315 32 326 q 30 337 32 347 q 33 357 37 354 l 37 354 z"},"?":{"ha":329,"x_min":0,"x_max":329,"o":"m 159 612 l 159 612 q 132 612 125 597 q 117 582 115 565 l 115 565 q 114 555 110 545 q 106 534 99 528 q 91 521 77 521 l 77 521 q 60 521 52 532 q 43 543 43 555 l 43 555 q 43 584 78 605 q 113 625 162 625 l 162 625 q 199 625 230 612 q 261 599 279 573 q 297 546 297 505 l 297 505 q 297 473 286 450 q 274 426 257 408 q 239 389 221 372 l 221 372 q 187 338 173 311 q 158 283 158 248 l 158 248 q 158 236 160 223 q 161 210 164 193 l 164 193 q 165 190 159 189 q 153 188 152 191 l 152 191 q 140 219 133 254 q 126 289 126 310 l 126 310 q 126 339 137 359 q 147 378 163 394 q 178 409 194 425 q 209 441 220 463 q 230 485 230 517 l 230 517 q 230 560 210 586 q 190 612 159 612 z m 147 -11 l 147 -11 q 127 -11 115 1 q 103 12 103 32 l 103 32 q 103 51 115 63 q 127 74 147 74 l 147 74 q 168 74 179 63 q 190 51 190 32 l 190 32 q 190 12 179 1 q 168 -11 147 -11 z"},"@":{"ha":719,"x_min":0,"x_max":719,"o":"m 414 138 l 414 138 l 432 229 l 450 242 q 427 187 396 143 q 364 99 331 74 q 297 49 266 49 l 266 49 q 242 49 226 68 q 210 86 216 129 l 216 129 q 222 170 243 210 q 263 250 293 283 q 323 316 356 336 q 388 355 418 355 l 418 355 q 438 355 456 344 q 474 332 476 306 l 476 306 l 447 325 q 456 327 468 338 q 480 348 483 362 l 483 362 q 485 364 493 364 q 501 363 501 361 l 501 361 l 460 137 q 455 108 459 90 q 463 71 493 71 l 493 71 q 520 71 547 90 q 574 109 593 146 q 611 183 611 236 l 611 236 q 611 301 579 354 q 547 407 492 439 q 436 470 366 470 l 366 470 q 288 470 233 432 q 177 394 147 332 q 117 270 117 199 l 117 199 q 117 119 152 60 q 187 0 250 -33 q 312 -66 393 -66 l 393 -66 q 439 -66 476 -56 q 513 -47 559 -20 l 559 -20 q 561 -18 564 -22 q 567 -26 565 -28 l 565 -28 q 510 -72 456 -84 q 402 -97 361 -97 l 361 -97 q 281 -97 216 -65 q 151 -33 113 28 q 74 88 74 173 l 74 173 q 74 244 101 303 q 127 361 173 404 q 219 446 278 470 q 336 493 398 493 l 398 493 q 474 493 530 462 q 586 431 617 379 q 648 327 648 265 l 648 265 q 648 208 623 160 q 598 111 557 81 q 516 51 467 51 l 467 51 q 432 51 420 75 q 407 99 414 138 z m 293 88 l 293 88 q 313 88 336 104 q 358 120 379 147 q 400 173 416 206 q 432 238 439 270 l 439 270 q 444 296 434 315 q 423 333 396 332 l 396 332 q 372 332 345 308 q 318 284 297 246 q 276 207 268 161 l 268 161 q 263 127 268 108 q 272 88 293 88 z"},"A":{"ha":702,"x_min":0,"x_max":702,"o":"m 476 275 l 194 275 l 204 295 l 469 295 l 476 275 z m 699 12 l 699 12 q 703 12 703 6 q 703 0 699 0 l 699 0 q 670 0 640 2 q 610 4 582 4 l 582 4 q 551 4 528 2 q 505 0 477 0 l 477 0 q 473 0 473 6 q 473 12 477 12 l 477 12 q 530 12 543 28 q 556 43 536 86 l 536 86 l 314 555 l 339 586 l 145 127 q 120 66 142 39 q 164 12 229 12 l 229 12 q 234 12 234 6 q 234 0 229 0 l 229 0 q 199 0 174 2 q 149 4 111 4 l 111 4 q 75 4 54 2 q 32 0 1 0 l 1 0 q -3 0 -3 6 q -3 12 1 12 l 1 12 q 28 12 48 23 q 68 33 86 60 q 103 86 124 136 l 124 136 l 335 634 q 337 637 342 637 q 347 637 348 634 l 348 634 l 584 137 q 607 88 625 61 q 643 33 661 23 q 678 12 699 12 z"},"B":{"ha":558,"x_min":0,"x_max":558,"o":"m 300 342 l 300 342 l 311 353 q 370 353 415 331 q 459 309 484 271 q 508 233 508 184 l 508 184 q 508 131 482 88 q 456 45 411 21 q 365 -4 309 -4 l 309 -4 q 277 -4 237 -1 q 196 2 162 2 l 162 2 q 129 2 99 1 q 68 0 43 0 l 43 0 q 41 0 41 6 q 41 12 43 12 l 43 12 q 79 12 98 17 q 117 22 124 37 q 131 52 131 81 l 131 81 l 131 544 q 131 573 125 588 q 118 602 100 608 q 81 613 45 613 l 45 613 q 42 613 42 619 q 42 625 45 625 l 45 625 q 69 625 99 624 q 129 622 162 622 l 162 622 q 188 622 222 625 q 256 628 280 628 l 280 628 q 339 628 376 611 q 413 593 431 563 q 448 533 448 496 l 448 496 q 448 439 407 399 q 365 359 300 342 z m 258 613 l 258 613 q 235 613 221 609 q 207 605 201 591 q 195 576 195 542 l 195 542 l 195 346 l 163 354 q 195 352 216 352 q 237 351 240 351 l 240 351 q 317 351 350 391 q 383 430 383 488 l 383 488 q 383 523 371 552 q 358 580 331 597 q 304 613 258 613 z m 294 14 l 294 14 q 369 14 404 53 q 438 91 438 159 l 438 159 q 438 234 394 282 q 350 330 271 330 l 271 330 q 246 331 220 330 q 193 329 166 325 l 166 325 l 195 336 l 195 81 q 195 57 202 42 q 209 27 231 21 q 252 14 294 14 z"},"C":{"ha":686,"x_min":0,"x_max":686,"o":"m 411 636 l 411 636 q 453 636 486 632 q 518 628 546 620 q 574 611 603 596 l 603 596 q 610 592 612 590 q 613 587 614 574 l 614 574 l 626 455 q 626 453 621 452 q 616 450 614 454 l 614 454 q 591 537 541 579 q 490 621 408 621 l 408 621 q 323 621 260 584 q 196 547 161 479 q 125 411 125 319 l 125 319 q 125 253 148 196 q 170 138 210 95 q 250 51 302 27 q 353 3 411 3 l 411 3 q 494 3 545 44 q 596 84 622 165 l 622 165 q 623 168 629 167 q 634 166 634 164 l 634 164 l 624 54 q 623 42 621 39 q 619 36 613 32 l 613 32 q 561 6 515 -3 q 469 -13 411 -13 l 411 -13 q 305 -13 224 29 q 142 70 96 145 q 49 219 49 317 l 49 317 q 49 389 76 448 q 103 506 152 548 q 201 590 267 613 q 333 636 411 636 z"},"D":{"ha":691,"x_min":0,"x_max":691,"o":"m 303 -4 l 303 -4 q 274 -4 232 -1 q 189 2 153 2 l 153 2 q 120 2 90 1 q 59 0 35 0 l 35 0 q 33 0 33 6 q 33 12 35 12 l 35 12 q 71 12 90 17 q 109 22 115 37 q 121 52 121 81 l 121 81 l 121 544 q 121 573 115 588 q 109 602 91 608 q 72 613 36 613 l 36 613 q 34 613 34 619 q 34 625 36 625 l 36 625 q 60 625 90 624 q 120 622 153 622 l 153 622 q 186 622 224 625 q 262 627 289 627 l 289 627 q 395 627 475 587 q 554 547 598 478 q 642 409 642 323 l 642 323 q 642 248 616 188 q 589 127 542 85 q 494 42 433 19 q 371 -4 303 -4 z m 293 11 l 293 11 q 373 11 434 45 q 495 78 531 143 q 566 208 566 301 l 566 301 q 566 388 533 459 q 500 529 441 571 q 381 612 298 612 l 298 612 q 238 612 212 600 q 186 588 186 542 l 186 542 l 186 92 q 186 50 207 31 q 227 11 293 11 z"},"E":{"ha":537,"x_min":0,"x_max":537,"o":"m 462 0 l 462 0 l 43 0 q 41 0 41 6 q 41 12 43 12 l 43 12 q 80 12 98 17 q 116 22 123 37 q 129 52 129 81 l 129 81 l 129 544 q 129 573 123 588 q 116 602 98 608 q 80 613 43 613 l 43 613 q 41 613 41 619 q 41 625 43 625 l 43 625 l 445 625 q 454 625 454 616 l 454 616 l 456 493 q 456 490 451 490 q 445 489 445 492 l 445 492 q 442 546 413 575 q 383 604 336 604 l 336 604 l 275 604 q 241 604 224 599 q 206 594 200 580 q 193 566 193 539 l 193 539 l 193 85 q 193 59 200 45 q 206 31 223 26 q 239 21 272 21 l 272 21 l 352 21 q 400 21 433 56 q 465 90 475 149 l 475 149 q 475 152 481 151 q 487 150 487 147 l 487 147 q 483 121 481 84 q 478 47 478 15 l 478 15 q 478 0 462 0 z m 406 233 l 406 233 q 406 277 385 296 q 363 315 313 315 l 313 315 l 163 315 l 163 336 l 316 336 q 364 336 385 353 q 405 369 405 406 l 405 406 q 405 408 411 408 q 417 408 417 406 l 417 406 q 417 376 417 360 q 416 343 416 325 l 416 325 q 416 302 417 280 q 418 258 418 233 l 418 233 q 418 231 412 231 q 406 231 406 233 z"},"F":{"ha":509,"x_min":0,"x_max":509,"o":"m 42 0 l 42 0 q 40 0 40 6 q 40 12 42 12 l 42 12 q 79 12 98 17 q 116 22 123 37 q 129 52 129 81 l 129 81 l 129 544 q 129 573 123 588 q 116 602 98 608 q 80 613 43 613 l 43 613 q 41 613 41 619 q 41 625 43 625 l 43 625 l 445 625 q 454 625 454 616 l 454 616 l 456 493 q 456 490 451 490 q 445 489 445 492 l 445 492 q 442 546 413 575 q 383 604 336 604 l 336 604 l 275 604 q 225 604 209 592 q 193 580 193 543 l 193 543 l 193 85 q 193 55 202 40 q 210 24 237 18 q 263 12 315 12 l 315 12 q 318 12 318 6 q 318 0 315 0 l 315 0 q 282 0 245 1 q 207 2 161 2 l 161 2 q 128 2 97 1 q 66 0 42 0 z m 394 221 l 394 221 q 394 265 371 284 q 347 303 292 303 l 292 303 l 163 303 l 163 324 l 295 324 q 348 324 371 341 q 393 358 393 394 l 393 394 q 393 396 399 396 q 405 396 405 394 l 405 394 q 405 364 405 348 q 404 331 404 313 l 404 313 q 404 290 405 268 q 406 246 406 221 l 406 221 q 406 219 400 219 q 394 219 394 221 z"},"G":{"ha":713,"x_min":0,"x_max":713,"o":"m 408 -12 l 408 -12 q 323 -12 256 14 q 189 40 143 86 q 97 131 73 190 q 49 249 49 316 l 49 316 q 49 391 78 450 q 106 508 157 550 q 208 592 277 614 q 345 636 424 636 l 424 636 q 478 636 525 626 q 571 616 602 597 l 602 597 q 609 593 611 590 q 612 587 613 575 l 613 575 l 625 457 q 625 454 620 453 q 615 452 613 456 l 613 456 q 603 492 586 522 q 569 552 544 574 q 519 595 485 608 q 450 620 405 620 l 405 620 q 327 620 264 585 q 200 550 163 485 q 126 420 126 331 l 126 331 q 126 270 145 212 q 164 153 202 106 q 240 58 298 31 q 356 3 435 3 l 435 3 q 482 3 511 15 q 539 27 552 54 q 564 81 564 125 l 564 125 q 564 173 558 196 q 551 218 528 225 q 504 232 450 232 l 450 232 q 444 232 444 240 q 444 248 449 248 l 449 248 q 513 244 565 244 q 617 243 674 246 l 674 246 q 679 246 679 239 q 679 232 674 232 l 674 232 q 651 233 640 226 q 629 218 626 193 q 623 168 623 115 l 623 115 q 623 82 625 66 q 627 50 629 43 q 630 35 630 27 l 630 27 q 630 21 628 19 q 626 17 619 15 l 619 15 q 568 4 513 -4 q 457 -12 408 -12 z"},"H":{"ha":759,"x_min":0,"x_max":759,"o":"m 571 81 l 571 542 q 571 571 565 586 q 559 601 541 607 q 522 613 483 613 l 483 613 q 480 613 480 619 q 480 625 483 625 l 483 625 q 507 625 537 624 q 567 622 604 622 l 604 622 q 637 622 668 624 q 699 625 722 625 l 722 625 q 725 625 725 619 q 725 613 722 613 l 722 613 q 685 613 666 608 q 647 602 641 588 q 635 573 635 544 l 635 544 l 635 81 q 635 52 641 37 q 647 22 666 17 q 685 12 722 12 l 722 12 q 725 12 725 6 q 725 0 722 0 l 722 0 q 699 0 668 1 q 637 2 604 2 l 604 2 q 567 2 537 1 q 507 0 483 0 l 483 0 q 480 0 480 6 q 480 12 483 12 l 483 12 q 522 12 541 17 q 559 22 565 37 q 571 52 571 81 l 571 81 z m 599 315 l 152 315 l 152 336 l 599 336 l 599 315 z m 123 81 l 123 81 l 123 544 q 123 573 117 588 q 110 602 92 608 q 73 613 36 613 l 36 613 q 34 613 34 619 q 34 625 36 625 l 36 625 q 60 625 91 624 q 121 622 154 622 l 154 622 q 191 622 221 624 q 251 625 275 625 l 275 625 q 277 625 277 619 q 277 613 275 613 l 275 613 q 238 613 219 607 q 200 601 194 586 q 187 571 187 542 l 187 542 l 187 81 q 187 52 193 37 q 199 22 219 17 q 238 12 275 12 l 275 12 q 277 12 277 6 q 277 0 275 0 l 275 0 q 250 0 221 1 q 191 2 154 2 l 154 2 q 121 2 90 1 q 59 0 35 0 l 35 0 q 33 0 33 6 q 33 12 35 12 l 35 12 q 72 12 91 17 q 110 22 117 37 q 123 52 123 81 z"},"I":{"ha":332,"x_min":0,"x_max":332,"o":"m 199 542 l 199 81 q 199 52 205 37 q 211 22 230 17 q 248 12 284 12 l 284 12 q 287 12 287 6 q 287 0 284 0 l 284 0 q 260 0 231 1 q 201 2 165 2 l 165 2 q 132 2 102 1 q 71 0 47 0 l 47 0 q 44 0 44 6 q 44 12 47 12 l 47 12 q 83 12 102 17 q 121 22 127 37 q 133 52 133 81 l 133 81 l 133 544 q 133 573 127 588 q 121 602 102 608 q 83 613 47 613 l 47 613 q 44 613 44 619 q 44 625 47 625 l 47 625 q 71 625 102 624 q 132 622 165 622 l 165 622 q 201 622 231 624 q 261 625 284 625 l 284 625 q 287 625 287 619 q 287 613 284 613 l 284 613 q 248 613 230 607 q 211 601 205 586 q 199 571 199 542 l 199 542 z"},"J":{"ha":322,"x_min":0,"x_max":322,"o":"m 280 625 l 280 625 q 282 625 282 619 q 282 613 280 613 l 280 613 q 248 613 233 607 q 217 601 212 586 q 206 571 206 542 l 206 542 l 206 -28 q 206 -124 161 -184 q 116 -244 27 -244 l 27 -244 q -7 -244 -26 -232 q -46 -220 -46 -201 l -46 -201 q -46 -186 -37 -177 q -28 -168 -12 -168 l -12 -168 q 6 -168 16 -176 q 25 -184 32 -195 q 38 -207 46 -215 q 54 -224 69 -224 l 69 -224 q 104 -224 122 -183 q 140 -143 140 -49 l 140 -49 l 140 544 q 140 573 133 588 q 126 602 105 608 q 84 613 42 613 l 42 613 q 40 613 40 619 q 40 625 42 625 l 42 625 q 71 625 104 624 q 137 622 172 622 l 172 622 q 205 622 232 624 q 258 625 280 625 z"},"K":{"ha":650,"x_min":0,"x_max":650,"o":"m 121 81 l 121 81 l 121 544 q 121 573 115 588 q 109 602 91 608 q 72 613 36 613 l 36 613 q 34 613 34 619 q 34 625 36 625 l 36 625 q 60 625 90 624 q 120 622 153 622 l 153 622 q 189 622 219 624 q 248 625 271 625 l 271 625 q 274 625 274 619 q 274 613 271 613 l 271 613 q 235 613 217 607 q 199 601 193 586 q 186 571 186 542 l 186 542 l 186 81 q 186 52 192 37 q 198 22 217 17 q 235 12 271 12 l 271 12 q 274 12 274 6 q 274 0 271 0 l 271 0 q 247 0 218 1 q 189 2 153 2 l 153 2 q 120 2 90 1 q 59 0 35 0 l 35 0 q 33 0 33 6 q 33 12 35 12 l 35 12 q 71 12 90 17 q 109 22 115 37 q 121 52 121 81 z m 372 145 l 372 145 l 213 345 l 263 385 l 409 199 q 454 140 486 104 q 517 68 538 49 q 559 29 576 22 q 592 14 607 13 q 622 12 641 12 l 641 12 q 644 12 644 6 q 644 0 641 0 l 641 0 q 596 0 569 0 q 542 0 529 0 l 529 0 q 520 0 515 0 q 509 -1 503 -1 l 503 -1 q 489 -1 481 4 q 472 9 461 24 q 450 39 430 68 q 409 97 372 145 z m 167 287 l 142 287 l 400 544 q 437 582 432 598 q 426 613 374 613 l 374 613 q 372 613 372 619 q 372 625 374 625 l 374 625 q 399 625 424 624 q 449 622 490 622 l 490 622 q 529 622 552 624 q 575 625 596 625 l 596 625 q 599 625 599 619 q 599 613 596 613 l 596 613 q 560 613 513 597 q 466 580 423 538 l 423 538 l 167 287 z"},"L":{"ha":533,"x_min":0,"x_max":533,"o":"m 185 543 l 185 543 l 185 85 q 185 58 191 44 q 197 30 215 26 q 232 21 265 21 l 265 21 l 374 21 q 432 21 466 58 q 500 94 510 153 l 510 153 q 510 156 516 156 q 521 155 521 152 l 521 152 q 518 125 515 87 q 512 48 512 15 l 512 15 q 512 0 497 0 l 497 0 l 35 0 q 33 0 33 6 q 33 12 35 12 l 35 12 q 71 12 90 17 q 108 22 114 37 q 120 52 120 81 l 120 81 l 120 544 q 120 573 114 588 q 108 602 90 608 q 71 613 35 613 l 35 613 q 33 613 33 619 q 33 625 35 625 l 35 625 q 59 625 89 624 q 119 622 152 622 l 152 622 q 187 622 217 624 q 247 625 270 625 l 270 625 q 273 625 273 619 q 273 613 270 613 l 270 613 q 234 613 216 608 q 197 602 191 587 q 185 572 185 543 z"},"M":{"ha":835,"x_min":0,"x_max":835,"o":"m 119 109 l 119 109 l 129 602 l 153 600 l 143 109 q 142 57 161 35 q 179 12 228 12 l 228 12 q 230 12 230 6 q 230 0 228 0 l 228 0 q 206 0 183 1 q 159 2 131 2 l 131 2 q 105 2 82 1 q 59 0 39 0 l 39 0 q 37 0 37 6 q 37 12 39 12 l 39 12 q 81 12 100 35 q 118 57 119 109 z m 812 12 l 812 12 q 815 12 815 6 q 815 0 812 0 l 812 0 q 788 0 758 1 q 727 2 694 2 l 694 2 q 662 2 635 1 q 607 0 585 0 l 585 0 q 583 0 583 6 q 583 12 585 12 l 585 12 q 635 12 649 25 q 663 38 661 81 l 661 81 l 642 564 l 675 610 l 415 7 q 414 3 407 3 q 400 3 398 7 l 398 7 l 147 542 q 113 613 46 613 l 46 613 q 44 613 44 619 q 44 625 46 625 l 46 625 q 62 625 81 624 q 99 623 111 623 l 111 623 q 127 623 141 624 q 154 625 161 625 l 161 625 q 175 625 183 616 q 191 607 207 573 l 207 573 l 435 93 l 404 41 l 648 600 q 653 612 661 619 q 669 625 678 625 l 678 625 q 684 625 694 624 q 704 623 718 623 l 718 623 q 745 623 762 624 q 779 625 798 625 l 798 625 q 800 625 800 619 q 800 613 798 613 l 798 613 q 750 613 727 599 q 704 585 706 544 l 706 544 l 726 81 q 727 52 733 37 q 739 22 758 17 q 776 12 812 12 z"},"N":{"ha":727,"x_min":0,"x_max":727,"o":"m 120 109 l 120 109 l 120 602 l 143 600 l 143 109 q 143 57 161 35 q 179 12 221 12 l 221 12 q 224 12 224 6 q 224 0 221 0 l 221 0 q 201 0 180 1 q 159 2 133 2 l 133 2 q 108 2 85 1 q 62 0 41 0 l 41 0 q 39 0 39 6 q 39 12 41 12 l 41 12 q 85 12 103 35 q 120 57 120 109 z m 616 82 l 624 -12 q 624 -14 619 -14 q 614 -15 612 -14 l 612 -14 l 152 543 q 118 584 92 599 q 65 613 41 613 l 41 613 q 38 613 38 619 q 38 625 41 625 l 41 625 q 59 625 78 624 q 96 623 111 623 l 111 623 q 129 623 145 624 q 161 625 169 625 l 169 625 q 182 625 187 614 q 192 602 216 573 l 216 573 l 616 82 z m 624 515 l 624 515 l 624 -12 l 601 19 l 601 515 q 601 567 584 590 q 566 613 525 613 l 525 613 q 523 613 523 619 q 523 625 525 625 l 525 625 q 545 625 567 624 q 588 622 613 622 l 613 622 q 637 622 661 624 q 684 625 704 625 l 704 625 q 707 625 707 619 q 707 613 704 613 l 704 613 q 661 613 643 590 q 624 567 624 515 z"},"O":{"ha":766,"x_min":0,"x_max":766,"o":"m 366 -12 l 366 -12 q 294 -12 236 14 q 177 39 136 84 q 94 129 72 188 q 49 246 49 312 l 49 312 q 49 393 81 454 q 112 515 164 556 q 216 596 278 616 q 340 636 401 636 l 401 636 q 475 636 534 610 q 592 583 633 538 q 674 493 696 436 q 717 379 717 319 l 717 319 q 717 249 689 189 q 661 129 613 84 q 564 39 501 14 q 437 -12 366 -12 z m 401 9 l 401 9 q 469 9 523 42 q 577 74 609 137 q 641 200 641 291 l 641 291 q 641 385 607 458 q 572 530 509 572 q 445 613 359 613 l 359 613 q 248 613 187 542 q 125 470 125 347 l 125 347 q 125 276 145 215 q 164 153 201 107 q 238 60 289 35 q 340 9 401 9 z"},"P":{"ha":543,"x_min":0,"x_max":543,"o":"m 192 542 l 192 85 q 192 55 200 40 q 208 24 234 18 q 260 12 311 12 l 311 12 q 314 12 314 6 q 314 0 311 0 l 311 0 q 279 0 242 1 q 204 2 160 2 l 160 2 q 127 2 97 1 q 66 0 42 0 l 42 0 q 40 0 40 6 q 40 12 42 12 l 42 12 q 79 12 97 17 q 115 22 121 37 q 127 52 127 81 l 127 81 l 127 544 q 127 573 121 588 q 115 602 97 608 q 79 613 42 613 l 42 613 q 40 613 40 619 q 40 625 42 625 l 42 625 q 66 625 96 624 q 126 622 159 622 l 159 622 q 185 622 223 625 q 260 628 298 628 l 298 628 q 355 628 401 611 q 446 594 473 558 q 500 522 501 464 l 501 464 q 501 411 482 373 q 462 335 430 311 q 397 286 358 274 q 319 262 280 262 l 280 262 q 268 262 256 263 q 243 264 232 267 l 232 267 q 228 268 230 275 q 231 281 234 280 l 234 280 q 243 278 253 277 q 262 276 270 276 l 270 276 q 311 276 347 294 q 383 312 405 350 q 427 387 427 443 l 427 443 q 427 498 407 536 q 387 573 352 593 q 317 613 274 613 l 274 613 q 241 613 224 610 q 206 606 199 591 q 192 576 192 542 l 192 542 z"},"Q":{"ha":766,"x_min":0,"x_max":766,"o":"m 377 2 l 463 7 q 491 -43 533 -81 q 574 -120 621 -141 q 667 -163 709 -163 l 709 -163 q 718 -163 728 -162 q 738 -162 745 -161 l 745 -161 q 748 -159 750 -164 q 751 -170 749 -171 l 749 -171 q 727 -176 706 -179 q 684 -183 664 -183 l 664 -183 q 618 -183 566 -161 q 514 -140 465 -99 q 416 -58 377 2 l 377 2 z m 366 -12 l 366 -12 q 294 -12 236 14 q 177 39 136 84 q 94 129 72 188 q 49 246 49 312 l 49 312 q 49 393 81 454 q 112 515 164 556 q 216 596 278 616 q 340 636 401 636 l 401 636 q 475 636 534 610 q 592 583 633 538 q 674 493 696 436 q 717 379 717 319 l 717 319 q 717 249 689 189 q 661 129 613 84 q 564 39 501 14 q 437 -12 366 -12 z m 401 9 l 401 9 q 469 9 523 42 q 577 74 609 137 q 641 200 641 291 l 641 291 q 641 385 607 458 q 572 530 509 572 q 445 613 359 613 l 359 613 q 248 613 187 542 q 125 470 125 347 l 125 347 q 125 276 145 215 q 164 153 201 107 q 238 60 289 35 q 340 9 401 9 z"},"R":{"ha":673,"x_min":0,"x_max":673,"o":"m 554 0 l 554 0 q 537 0 500 39 q 462 77 409 150 q 355 222 289 321 l 289 321 l 345 338 q 430 217 490 146 q 549 74 595 43 q 640 12 682 12 l 682 12 q 685 12 685 6 q 685 0 682 0 l 682 0 q 632 0 601 0 q 569 0 554 0 z m 302 628 l 302 628 q 382 628 425 592 q 467 555 467 496 l 467 496 q 467 442 436 399 q 404 355 353 330 q 301 305 240 305 l 240 305 q 230 305 218 306 q 205 307 195 308 l 195 308 l 195 81 q 195 52 201 37 q 206 22 225 17 q 243 12 280 12 l 280 12 q 283 12 283 6 q 283 0 280 0 l 280 0 q 256 0 227 1 q 197 2 162 2 l 162 2 q 129 2 99 1 q 68 0 43 0 l 43 0 q 41 0 41 6 q 41 12 43 12 l 43 12 q 80 12 99 17 q 117 22 124 37 q 131 52 131 81 l 131 81 l 131 544 q 131 573 125 588 q 118 602 100 608 q 82 613 45 613 l 45 613 q 42 613 42 619 q 42 625 45 625 l 45 625 q 69 625 99 624 q 129 622 162 622 l 162 622 q 193 622 234 625 q 274 628 302 628 z m 399 467 l 399 467 q 399 522 383 554 q 366 586 336 600 q 306 613 264 613 l 264 613 q 227 613 211 600 q 195 587 195 542 l 195 542 l 195 332 q 209 330 225 329 q 241 328 254 328 l 254 328 q 335 328 367 364 q 399 399 399 467 z"},"S":{"ha":491,"x_min":0,"x_max":491,"o":"m 145 508 l 145 508 q 145 467 166 438 q 186 408 218 386 q 250 364 286 342 l 286 342 q 323 321 358 297 q 392 273 415 240 q 437 207 437 159 l 437 159 q 437 111 413 73 q 389 34 344 11 q 298 -12 231 -12 l 231 -12 q 207 -12 184 -8 q 160 -5 137 3 q 113 11 90 23 l 90 23 q 85 26 84 31 q 82 35 81 42 l 81 42 l 68 178 q 67 183 73 184 q 78 184 79 180 l 79 180 q 86 150 99 119 q 112 88 133 62 q 154 36 184 20 q 214 4 254 4 l 254 4 q 283 4 311 15 q 338 26 356 51 q 373 76 373 119 l 373 119 q 373 168 352 201 q 330 233 297 257 q 264 281 227 302 l 227 302 q 192 324 160 347 q 127 370 107 402 q 86 433 86 480 l 86 480 q 86 533 113 568 q 140 602 183 619 q 226 636 272 636 l 272 636 q 300 636 330 631 q 360 625 389 612 l 389 612 q 397 609 401 605 q 404 600 404 595 l 404 595 l 411 481 q 411 477 406 477 q 401 476 399 480 l 399 480 q 397 500 388 525 q 379 549 362 571 q 345 593 319 607 q 293 621 256 621 l 256 621 q 217 621 193 605 q 168 588 157 563 q 145 537 145 508 z"},"T":{"ha":634,"x_min":0,"x_max":634,"o":"m 188 607 l 188 607 q 126 607 95 575 q 63 543 49 466 l 49 466 q 49 464 44 464 q 38 464 38 466 l 38 466 q 40 479 42 503 q 44 526 47 553 q 49 580 51 606 q 52 631 52 647 l 52 647 q 52 652 58 652 q 63 652 63 647 l 63 647 q 63 637 73 633 q 83 628 96 627 q 108 625 117 625 l 117 625 q 203 622 318 622 l 318 622 q 389 622 431 624 q 472 625 511 625 l 511 625 q 545 625 564 630 q 582 634 587 650 l 587 650 q 588 654 593 654 q 598 654 598 650 l 598 650 q 597 635 595 609 q 593 583 592 555 q 591 527 590 503 q 589 479 589 466 l 589 466 q 589 464 583 464 q 577 464 577 466 l 577 466 q 574 544 545 576 q 516 607 449 607 l 449 607 q 407 607 386 603 q 365 599 359 586 q 352 572 352 542 l 352 542 l 352 81 q 352 52 359 37 q 366 22 387 17 q 407 12 449 12 l 449 12 q 452 12 452 6 q 452 0 449 0 l 449 0 q 423 0 390 1 q 357 2 318 2 l 318 2 q 281 2 248 1 q 215 0 188 0 l 188 0 q 186 0 186 6 q 186 12 188 12 l 188 12 q 229 12 251 17 q 272 22 279 37 q 286 52 286 81 l 286 81 l 286 544 q 286 574 279 588 q 272 601 251 604 q 230 607 188 607 z"},"U":{"ha":698,"x_min":0,"x_max":698,"o":"m 572 230 l 572 515 q 572 564 551 589 q 529 613 485 613 l 485 613 q 482 613 482 619 q 482 625 485 625 l 485 625 q 508 625 532 624 q 556 622 585 622 l 585 622 q 608 622 632 624 q 656 625 676 625 l 676 625 q 678 625 678 619 q 678 613 676 613 l 676 613 q 636 613 616 589 q 596 564 596 515 l 596 515 l 596 231 q 596 154 567 100 q 537 45 484 16 q 431 -13 360 -13 l 360 -13 q 286 -13 231 16 q 175 45 145 99 q 114 152 114 224 l 114 224 l 114 544 q 114 573 108 588 q 102 602 84 608 q 65 613 29 613 l 29 613 q 27 613 27 619 q 27 625 29 625 l 29 625 q 53 625 83 624 q 112 622 146 622 l 146 622 q 181 622 211 624 q 241 625 263 625 l 263 625 q 266 625 266 619 q 266 613 263 613 l 263 613 q 227 613 209 607 q 191 601 185 586 q 179 571 179 542 l 179 542 l 179 259 q 179 140 233 79 q 286 17 382 17 l 382 17 q 472 17 522 74 q 572 130 572 230 l 572 230 z"},"V":{"ha":666,"x_min":0,"x_max":666,"o":"m 669 625 l 669 625 q 672 625 672 619 q 672 613 669 613 l 669 613 q 637 613 612 596 q 586 579 568 534 l 568 534 l 355 1 q 354 -3 345 -3 q 335 -3 333 1 l 333 1 l 84 542 q 67 580 49 597 q 30 613 -1 613 l -1 613 q -4 613 -4 619 q -4 625 -1 625 l -1 625 q 13 625 26 624 q 39 623 53 623 q 67 622 82 622 l 82 622 q 112 622 135 623 q 158 623 176 624 q 194 625 209 625 l 209 625 q 212 625 212 619 q 212 613 209 613 l 209 613 q 170 613 155 598 q 139 583 156 546 l 156 546 l 372 73 l 341 27 l 545 540 q 560 577 545 595 q 530 613 475 613 l 475 613 q 472 613 472 619 q 472 625 475 625 l 475 625 q 500 625 522 624 q 544 622 580 622 l 580 622 q 609 622 627 624 q 644 625 669 625 z"},"W":{"ha":931,"x_min":0,"x_max":931,"o":"m 469 348 l 484 326 l 355 1 q 354 -3 345 -3 q 335 -3 333 1 l 333 1 l 84 542 q 73 569 61 585 q 49 600 35 607 q 20 613 -1 613 l -1 613 q -4 613 -4 619 q -4 625 -1 625 l -1 625 q 13 625 26 624 q 39 623 53 623 q 67 622 82 622 l 82 622 q 110 622 132 623 q 153 623 170 624 q 186 625 201 625 l 201 625 q 204 625 204 619 q 204 613 201 613 l 201 613 q 162 613 148 600 q 134 586 152 546 l 152 546 l 374 69 l 338 21 l 469 348 z m 935 625 l 935 625 q 937 625 937 619 q 937 613 935 613 l 935 613 q 902 613 877 597 q 852 580 833 534 l 833 534 l 620 1 q 619 -3 610 -3 q 600 -3 598 1 l 598 1 l 350 542 q 333 580 315 597 q 296 613 267 613 l 267 613 q 264 613 264 619 q 264 625 267 625 l 267 625 q 280 625 293 624 q 306 623 320 623 q 333 622 348 622 l 348 622 q 380 622 399 624 q 418 625 433 625 l 433 625 q 436 625 436 619 q 436 613 433 613 l 433 613 q 402 613 400 602 q 397 590 417 546 l 417 546 l 640 69 l 604 21 l 811 538 q 826 576 811 595 q 796 613 743 613 l 743 613 q 740 613 740 619 q 740 625 743 625 l 743 625 q 767 625 789 624 q 811 622 846 622 l 846 622 q 874 622 892 624 q 910 625 935 625 z m 489 326 l 474 348 l 550 540 q 566 579 559 596 q 552 613 519 613 l 519 613 q 516 613 516 619 q 516 625 519 625 l 519 625 q 529 625 538 624 q 546 623 557 623 q 567 622 584 622 l 584 622 q 612 622 630 624 q 647 625 671 625 l 671 625 q 673 625 673 619 q 673 613 671 613 l 671 613 q 640 613 615 597 q 590 581 572 534 l 572 534 l 489 326 z"},"X":{"ha":652,"x_min":0,"x_max":652,"o":"m 413 0 l 413 0 q 411 0 411 6 q 411 12 413 12 l 413 12 q 449 12 460 21 q 470 29 455 51 l 455 51 l 133 540 q 107 580 81 597 q 55 613 21 613 l 21 613 q 19 613 19 619 q 19 625 21 625 l 21 625 q 39 625 59 624 q 79 622 97 622 l 97 622 q 138 622 172 624 q 206 625 231 625 l 231 625 q 234 625 234 619 q 234 613 231 613 l 231 613 q 195 613 185 605 q 174 596 189 573 l 189 573 l 513 83 q 539 44 567 28 q 594 12 635 12 l 635 12 q 637 12 637 6 q 637 0 635 0 l 635 0 q 615 0 591 1 q 566 2 539 2 l 539 2 q 499 2 469 1 q 439 0 413 0 z m 17 0 l 17 0 q 14 0 14 6 q 14 12 17 12 l 17 12 q 50 12 85 35 q 120 57 153 103 l 153 103 l 304 310 l 316 299 l 175 102 q 145 59 154 36 q 163 12 211 12 l 211 12 q 214 12 214 6 q 214 0 211 0 l 211 0 q 184 0 160 1 q 136 2 96 2 l 96 2 q 71 2 56 1 q 40 0 17 0 z m 477 514 l 332 315 l 319 325 l 454 516 q 488 563 480 588 q 472 613 425 613 l 425 613 q 422 613 422 619 q 422 625 425 625 l 425 625 q 451 625 476 624 q 500 622 539 622 l 539 622 q 565 622 581 624 q 596 625 618 625 l 618 625 q 621 625 621 619 q 621 613 618 613 l 618 613 q 585 613 549 588 q 513 563 477 514 l 477 514 z"},"Y":{"ha":609,"x_min":0,"x_max":609,"o":"m 318 273 l 301 288 l 451 518 q 480 565 472 589 q 464 613 419 613 l 419 613 q 417 613 417 619 q 417 625 419 625 l 419 625 q 446 625 471 624 q 496 622 536 622 l 536 622 q 561 622 577 624 q 592 625 614 625 l 614 625 q 616 625 616 619 q 616 613 614 613 l 614 613 q 590 613 565 601 q 540 589 518 567 q 495 545 475 514 l 475 514 l 318 273 z m 339 317 l 290 272 l 110 536 q 82 579 57 596 q 32 613 -1 613 l -1 613 q -4 613 -4 619 q -4 625 -1 625 l -1 625 q 16 625 35 624 q 54 622 70 622 l 70 622 q 97 622 123 623 q 148 623 171 624 q 193 625 210 625 l 210 625 q 212 625 212 619 q 212 613 210 613 l 210 613 q 171 613 162 602 q 152 591 168 568 l 168 568 l 339 317 z m 276 81 l 276 310 l 341 319 l 341 81 q 341 52 347 37 q 353 22 371 17 q 389 12 426 12 l 426 12 q 429 12 429 6 q 429 0 426 0 l 426 0 q 402 0 373 1 q 343 2 308 2 l 308 2 q 275 2 244 1 q 213 0 190 0 l 190 0 q 187 0 187 6 q 187 12 190 12 l 190 12 q 226 12 245 17 q 264 22 270 37 q 276 52 276 81 l 276 81 z"},"Z":{"ha":595,"x_min":0,"x_max":595,"o":"m 55 13 l 55 13 l 450 600 q 454 605 453 607 q 452 608 445 608 l 445 608 q 348 608 284 607 q 220 605 182 600 q 143 595 122 583 q 100 570 88 550 q 76 530 64 497 l 64 497 q 63 494 57 496 q 51 497 52 499 l 52 499 l 92 655 q 93 657 99 656 q 105 655 104 653 l 104 653 q 101 635 112 630 q 123 625 161 625 l 161 625 q 221 625 308 625 q 395 625 526 625 l 526 625 q 531 625 533 621 q 535 616 533 612 l 533 612 l 143 27 q 139 22 140 21 q 141 19 148 19 l 148 19 q 231 19 297 19 q 362 19 403 19 l 403 19 q 448 19 478 31 q 508 43 526 69 q 544 95 551 135 l 551 135 q 552 137 557 137 q 562 137 562 135 l 562 135 l 548 8 q 548 5 546 2 q 544 -2 539 -2 l 539 -2 q 465 -1 383 0 q 300 0 218 0 q 135 0 61 0 l 61 0 q 57 0 55 5 q 52 9 55 13 z"},"[":{"ha":274,"x_min":0,"x_max":274,"o":"m 89 -106 l 89 -106 l 89 715 q 89 722 91 724 q 92 725 98 725 l 98 725 q 122 725 148 725 q 174 725 198 725 q 221 725 236 725 l 236 725 q 239 725 239 719 q 239 713 236 713 l 236 713 q 198 713 179 707 q 160 701 154 686 q 147 671 147 642 l 147 642 l 147 -34 q 147 -62 154 -77 q 160 -93 179 -99 q 198 -105 236 -105 l 236 -105 q 239 -105 239 -111 q 239 -117 236 -117 l 236 -117 q 221 -117 198 -117 q 174 -117 148 -117 q 122 -117 98 -117 l 98 -117 q 92 -117 91 -115 q 89 -113 89 -106 z"},"\\":{"ha":341,"x_min":0,"x_max":341,"o":"m 277 -163 l 277 -163 l 26 718 q 25 721 34 725 q 42 729 52 731 q 62 733 63 730 l 63 730 l 315 -152 q 316 -154 307 -158 q 298 -162 289 -164 q 279 -166 277 -163 z"},"]":{"ha":274,"x_min":0,"x_max":274,"o":"m 185 -106 l 185 -106 l 185 715 q 185 722 184 724 q 182 725 176 725 l 176 725 q 153 725 127 725 q 100 725 77 725 q 53 725 38 725 l 38 725 q 35 725 35 719 q 35 713 38 713 l 38 713 q 76 713 95 707 q 114 701 121 686 q 127 671 127 642 l 127 642 l 127 -34 q 127 -62 121 -77 q 114 -93 95 -99 q 76 -105 38 -105 l 38 -105 q 35 -105 35 -111 q 35 -117 38 -117 l 38 -117 q 53 -117 77 -117 q 100 -117 127 -117 q 153 -117 176 -117 l 176 -117 q 182 -117 184 -115 q 185 -113 185 -106 z"},"^":{"ha":392,"x_min":0,"x_max":392,"o":"m 207 629 l 333 380 q 335 378 331 376 q 326 373 324 375 l 324 375 l 196 547 l 68 375 q 66 373 62 376 q 57 378 58 380 l 58 380 l 185 629 q 186 634 196 634 q 206 634 207 629 l 207 629 z"},"_":{"ha":398,"x_min":0,"x_max":398,"o":"m 364 -76 l 34 -76 q 31 -76 30 -66 q 29 -56 30 -46 q 31 -36 33 -36 l 33 -36 l 364 -36 q 367 -36 368 -46 q 369 -56 368 -66 q 367 -76 364 -76 l 364 -76 z"},"`":{"ha":213,"x_min":0,"x_max":213,"o":"m 144 474 l 42 727 q 41 731 50 731 q 58 731 71 729 q 83 726 93 723 q 103 719 103 716 l 103 716 l 154 476 q 156 474 151 473 q 145 471 144 474 l 144 474 z"},"a":{"ha":419,"x_min":0,"x_max":419,"o":"m 417 43 l 314 -6 q 310 -8 306 -8 l 306 -8 q 293 -8 281 14 q 269 35 269 76 l 269 76 l 269 265 q 269 327 252 352 q 234 377 206 377 l 206 377 q 181 377 165 365 q 149 352 142 335 q 134 318 131 303 l 131 303 q 128 289 121 276 q 114 262 93 262 l 93 262 q 76 262 68 272 q 60 281 60 292 l 60 292 q 60 311 79 329 q 97 347 126 363 q 154 378 186 387 q 217 396 242 396 l 242 396 q 283 396 304 370 q 325 343 325 295 l 325 295 l 325 108 q 325 73 334 57 q 343 41 363 41 l 363 41 q 381 41 413 54 l 413 54 q 418 56 420 51 q 422 45 417 43 l 417 43 z m 134 -7 l 134 -7 q 96 -7 76 14 q 56 34 56 62 l 56 62 q 56 82 67 99 q 77 115 100 129 q 123 143 159 156 l 159 156 l 279 201 l 282 188 l 176 147 q 158 140 146 131 q 134 122 129 111 q 123 100 123 87 l 123 87 q 123 64 138 47 q 153 30 179 30 l 179 30 q 189 30 200 33 q 211 36 227 46 l 227 46 l 290 84 l 292 71 l 218 23 q 194 7 175 0 q 155 -7 134 -7 z"},"b":{"ha":510,"x_min":0,"x_max":510,"o":"m 253 -13 l 253 -13 q 214 -13 176 0 q 138 12 103 42 l 103 42 l 150 131 q 150 85 173 58 q 196 30 228 18 q 259 6 284 6 l 284 6 q 342 6 375 51 q 407 96 407 180 l 407 180 q 407 273 371 320 q 335 366 279 366 l 279 366 q 238 366 203 341 q 168 315 138 283 l 138 283 l 130 290 q 151 313 177 339 q 203 364 237 382 q 270 399 312 399 l 312 399 q 355 399 391 379 q 427 358 450 317 q 473 276 473 214 l 473 214 q 473 138 441 88 q 408 37 358 12 q 307 -13 253 -13 z m 150 46 l 41 -5 q 37 -6 35 -1 q 33 3 36 5 l 36 5 q 65 25 80 44 q 94 63 94 103 l 94 103 l 94 597 q 94 633 87 649 q 80 665 61 665 l 61 665 q 45 665 16 652 l 16 652 q 12 650 10 656 q 7 662 11 663 l 11 663 l 136 724 q 139 725 141 725 l 141 725 q 144 725 147 723 q 150 720 150 717 l 150 717 l 150 46 z"},"c":{"ha":411,"x_min":0,"x_max":411,"o":"m 231 -12 l 231 -12 q 163 -12 120 18 q 77 47 57 93 q 36 138 36 185 l 36 185 q 36 235 56 274 q 75 313 107 340 q 139 367 178 381 q 217 395 254 395 l 254 395 q 283 395 310 388 q 336 380 354 366 q 371 352 371 334 l 371 334 q 371 321 362 312 q 353 302 336 302 l 336 302 q 320 302 310 312 q 299 322 292 335 l 292 335 q 281 353 266 364 q 251 375 221 375 l 221 375 q 164 375 133 331 q 102 286 102 215 l 102 215 q 102 164 120 120 q 137 76 174 50 q 211 23 270 23 l 270 23 q 297 23 323 30 q 349 37 372 56 l 372 56 q 374 58 378 54 q 381 50 379 48 l 379 48 q 344 17 309 3 q 274 -12 231 -12 z"},"d":{"ha":512,"x_min":0,"x_max":512,"o":"m 192 -13 l 192 -13 q 151 -13 115 11 q 79 35 58 78 q 36 120 36 178 l 36 178 q 36 235 58 277 q 79 318 113 345 q 147 372 187 386 q 227 399 264 399 l 264 399 q 299 399 330 387 q 361 375 386 354 l 386 354 l 375 287 q 350 326 319 353 q 288 379 237 379 l 237 379 q 176 379 139 336 q 101 292 101 208 l 101 208 q 101 151 118 110 q 135 68 165 46 q 195 23 231 23 l 231 23 q 276 23 311 48 q 346 73 377 108 l 377 108 l 385 101 q 364 77 336 51 q 308 24 273 6 q 237 -13 192 -13 z m 416 717 l 416 717 l 416 110 q 416 74 424 58 q 432 42 452 42 l 452 42 q 462 42 476 45 q 489 47 504 56 l 504 56 q 509 58 512 53 q 514 47 510 45 l 510 45 l 400 -7 q 396 -9 392 -9 l 392 -9 q 380 -9 370 14 q 360 37 360 81 l 360 81 l 360 597 q 360 633 353 649 q 346 665 327 665 l 327 665 q 318 665 308 662 q 297 658 281 651 l 281 651 q 277 649 275 655 q 272 661 275 662 l 275 662 l 402 724 q 404 725 407 725 l 407 725 q 410 725 413 723 q 416 720 416 717 z"},"e":{"ha":408,"x_min":0,"x_max":408,"o":"m 219 -12 l 219 -12 q 159 -12 118 16 q 77 43 57 87 q 36 131 36 180 l 36 180 q 36 241 64 290 q 92 338 141 367 q 189 395 247 395 l 247 395 q 304 395 334 365 q 363 335 363 281 l 363 281 q 363 268 361 262 q 358 255 351 255 l 351 255 l 295 255 q 299 316 277 346 q 255 375 214 375 l 214 375 q 161 375 132 333 q 102 291 102 218 l 102 218 q 102 161 120 117 q 138 73 173 48 q 208 23 258 23 l 258 23 q 292 23 314 33 q 336 43 358 56 l 358 56 q 360 58 364 54 q 367 49 365 46 l 365 46 q 330 15 294 2 q 257 -12 219 -12 z m 310 255 l 84 254 l 83 267 l 310 271 l 310 255 z"},"f":{"ha":305,"x_min":0,"x_max":305,"o":"m 32 0 l 32 0 q 29 0 29 6 q 29 12 32 12 l 32 12 q 75 12 88 25 q 101 38 101 81 l 101 81 l 101 306 q 101 330 96 342 q 91 353 76 357 q 61 360 28 360 l 28 360 q 25 360 25 367 q 25 373 28 373 l 28 373 q 70 373 84 383 q 98 393 99 418 l 99 418 q 104 584 160 655 q 216 726 319 726 l 319 726 q 372 726 404 711 q 435 695 435 673 l 435 673 q 435 657 425 649 q 414 641 400 641 l 400 641 q 388 641 380 648 q 371 654 361 667 l 361 667 q 346 687 329 698 q 311 709 284 709 l 284 709 q 229 709 194 645 q 158 581 158 439 l 158 439 l 158 81 q 158 52 165 37 q 171 22 192 17 q 213 12 256 12 l 256 12 q 259 12 259 6 q 259 0 256 0 l 256 0 q 223 0 192 1 q 161 2 128 2 l 128 2 q 102 2 77 1 q 51 0 32 0 z m 283 337 l 283 337 q 244 347 209 350 q 173 353 133 353 l 133 353 l 133 375 q 172 375 209 378 q 245 381 286 385 l 286 385 q 289 385 291 378 q 293 371 293 361 l 293 361 q 293 354 290 345 q 287 336 283 337 z"},"g":{"ha":445,"x_min":0,"x_max":445,"o":"m 180 -280 l 180 -280 q 110 -280 71 -248 q 32 -217 32 -170 l 32 -170 q 32 -122 72 -78 q 112 -35 185 7 l 185 7 l 196 -6 q 167 -20 143 -37 q 118 -54 104 -77 q 89 -101 89 -137 l 89 -137 q 89 -171 105 -196 q 120 -222 150 -236 q 179 -250 221 -250 l 221 -250 q 290 -250 334 -214 q 378 -178 378 -116 l 378 -116 q 378 -74 358 -56 q 337 -38 302 -33 q 266 -29 219 -29 l 219 -29 q 175 -28 138 -24 q 101 -21 79 -5 q 57 10 57 43 l 57 43 q 57 77 79 103 q 101 128 140 158 l 140 158 l 151 149 q 127 130 117 114 q 107 98 107 79 l 107 79 q 107 57 121 45 q 135 33 167 29 q 199 24 252 23 l 252 23 q 277 23 307 22 q 336 21 364 13 q 392 4 410 -17 q 428 -38 428 -78 l 428 -78 q 428 -120 408 -156 q 387 -193 352 -221 q 317 -249 272 -264 q 227 -280 180 -280 z m 209 133 l 209 133 q 161 133 127 151 q 93 169 75 199 q 57 229 57 263 l 57 263 q 57 300 77 330 q 97 359 133 376 q 169 393 216 393 l 216 393 q 270 393 303 374 q 336 354 351 325 q 366 295 366 265 l 366 265 q 366 230 347 200 q 328 170 293 152 q 257 133 209 133 z m 228 148 l 228 148 q 260 148 282 170 q 303 192 303 243 l 303 243 q 303 286 288 316 q 273 346 248 362 q 223 378 192 378 l 192 378 q 159 378 139 357 q 118 336 118 287 l 118 287 q 118 240 135 209 q 152 178 177 163 q 202 148 228 148 z m 310 346 l 301 318 l 302 351 q 333 371 362 383 q 391 394 427 394 l 427 394 q 429 394 431 387 q 432 380 432 372 l 432 372 q 432 361 430 349 q 427 336 423 338 l 423 338 q 414 342 397 348 q 379 353 356 353 l 356 353 q 343 353 332 351 q 321 349 310 346 l 310 346 z"},"h":{"ha":499,"x_min":0,"x_max":499,"o":"m 26 0 l 26 0 q 23 0 23 6 q 23 12 26 12 l 26 12 q 65 12 77 26 q 89 39 89 81 l 89 81 l 89 598 q 89 633 82 650 q 75 666 57 666 l 57 666 q 42 666 11 652 l 11 652 q 7 650 5 656 q 2 661 6 663 l 6 663 l 133 725 q 135 725 135 725 q 135 725 136 725 l 136 725 q 139 725 142 723 q 145 720 145 717 l 145 717 l 145 81 q 145 39 157 26 q 169 12 208 12 l 208 12 q 211 12 211 6 q 211 0 208 0 l 208 0 q 190 0 167 1 q 144 2 117 2 l 117 2 q 91 2 67 1 q 43 0 26 0 z m 295 0 l 295 0 q 292 0 292 6 q 292 12 295 12 l 295 12 q 334 12 346 26 q 358 39 358 81 l 358 81 l 358 240 q 358 357 266 357 l 266 357 q 229 357 191 334 q 153 310 126 270 l 126 270 l 122 282 q 166 342 210 369 q 253 396 299 396 l 299 396 q 354 396 384 366 q 414 335 414 275 l 414 275 l 414 81 q 414 39 426 26 q 438 12 477 12 l 477 12 q 480 12 480 6 q 480 0 477 0 l 477 0 q 459 0 436 1 q 413 2 386 2 l 386 2 q 360 2 336 1 q 312 0 295 0 z"},"i":{"ha":273,"x_min":0,"x_max":273,"o":"m 53 0 l 53 0 q 51 0 51 6 q 51 12 53 12 l 53 12 q 92 12 105 26 q 117 39 117 81 l 117 81 l 117 268 q 117 303 110 320 q 103 336 84 336 l 84 336 q 76 336 65 333 q 54 329 39 322 l 39 322 q 35 321 33 327 q 30 332 33 334 l 33 334 l 163 394 q 166 395 167 395 l 167 395 q 169 395 172 393 q 175 390 175 387 l 175 387 q 175 379 174 348 q 173 317 173 269 l 173 269 l 173 81 q 173 39 185 26 q 196 12 236 12 l 236 12 q 239 12 239 6 q 239 0 236 0 l 236 0 q 218 0 195 1 q 171 2 145 2 l 145 2 q 119 2 96 1 q 72 0 53 0 z m 137 512 l 137 512 q 117 512 105 523 q 93 534 93 554 l 93 554 q 93 574 105 585 q 117 596 137 596 l 137 596 q 157 596 168 585 q 179 574 179 554 l 179 554 q 179 512 137 512 z"},"j":{"ha":257,"x_min":0,"x_max":257,"o":"m 166 387 l 166 387 q 166 379 165 348 q 164 317 164 269 l 164 269 l 164 -48 q 164 -114 152 -158 q 139 -203 109 -232 q 78 -261 24 -282 l 24 -282 q 22 -283 20 -277 q 17 -272 19 -271 l 19 -271 q 69 -250 89 -203 q 108 -156 108 -71 l 108 -71 l 108 268 q 108 303 101 320 q 94 336 77 336 l 77 336 q 68 336 57 333 q 46 329 31 322 l 31 322 q 27 321 25 327 q 22 332 25 334 l 25 334 l 155 394 q 157 395 158 395 l 158 395 q 161 395 164 393 q 166 390 166 387 z m 128 512 l 128 512 q 107 512 96 523 q 84 534 84 554 l 84 554 q 84 574 96 585 q 107 596 128 596 l 128 596 q 148 596 159 585 q 170 574 170 554 l 170 554 q 170 512 128 512 z"},"k":{"ha":491,"x_min":0,"x_max":491,"o":"m 26 0 l 26 0 q 23 0 23 6 q 23 12 26 12 l 26 12 q 65 12 77 26 q 89 39 89 81 l 89 81 l 89 598 q 89 633 82 650 q 75 666 57 666 l 57 666 q 42 666 11 652 l 11 652 q 7 650 5 656 q 2 662 6 663 l 6 663 l 131 724 q 134 725 136 725 l 136 725 q 139 725 142 723 q 145 720 145 717 l 145 717 l 145 81 q 145 39 157 26 q 169 12 208 12 l 208 12 q 211 12 211 6 q 211 0 208 0 l 208 0 q 190 0 167 1 q 144 2 117 2 l 117 2 q 91 2 67 1 q 43 0 26 0 z m 277 0 l 277 0 q 275 0 275 6 q 275 12 277 12 l 277 12 q 313 12 323 22 q 333 31 318 53 l 318 53 l 191 226 l 238 260 l 368 81 q 395 42 425 27 q 454 12 483 12 l 483 12 q 486 12 486 6 q 486 0 483 0 l 483 0 q 465 0 442 1 q 419 2 392 2 l 392 2 q 354 2 327 1 q 300 0 277 0 z m 299 302 l 127 167 l 123 179 l 279 305 q 318 336 311 355 q 303 374 254 374 l 254 374 q 251 374 251 380 q 251 386 254 386 l 254 386 q 278 386 303 385 q 327 384 368 384 l 368 384 q 406 384 429 385 q 451 386 471 386 l 471 386 q 474 386 474 380 q 474 374 471 374 l 471 374 q 448 374 420 367 q 392 359 362 343 q 331 327 299 302 l 299 302 z"},"l":{"ha":258,"x_min":0,"x_max":258,"o":"m 40 0 l 40 0 q 37 0 37 6 q 37 12 40 12 l 40 12 q 79 12 91 26 q 103 39 103 81 l 103 81 l 103 598 q 103 633 96 650 q 89 666 71 666 l 71 666 q 56 666 25 652 l 25 652 q 22 650 19 656 q 16 662 20 663 l 20 663 l 148 724 q 150 725 153 725 l 153 725 q 155 725 159 723 q 162 720 162 717 l 162 717 l 162 81 q 162 39 173 26 q 184 12 224 12 l 224 12 q 227 12 227 6 q 227 0 224 0 l 224 0 q 207 0 183 1 q 159 2 132 2 l 132 2 q 106 2 82 1 q 57 0 40 0 z"},"m":{"ha":763,"x_min":0,"x_max":763,"o":"m 560 0 l 560 0 q 557 0 557 6 q 557 12 560 12 l 560 12 q 599 12 611 26 q 623 39 623 81 l 623 81 l 623 240 q 623 357 537 357 l 537 357 q 501 357 466 334 q 430 310 403 270 l 403 270 l 399 282 q 442 342 484 369 q 526 396 570 396 l 570 396 q 622 396 651 367 q 679 337 679 275 l 679 275 l 679 81 q 679 39 691 26 q 702 12 742 12 l 742 12 q 745 12 745 6 q 745 0 742 0 l 742 0 q 725 0 701 1 q 677 2 651 2 l 651 2 q 625 2 602 1 q 578 0 560 0 z m 302 0 l 302 0 q 299 0 299 6 q 299 12 302 12 l 302 12 q 341 12 353 26 q 364 39 364 81 l 364 81 l 364 240 q 364 357 279 357 l 279 357 q 243 357 208 334 q 172 310 145 270 l 145 270 l 141 282 q 183 342 225 369 q 267 396 311 396 l 311 396 q 363 396 392 367 q 421 338 421 277 l 421 277 l 421 81 q 421 39 433 26 q 444 12 484 12 l 484 12 q 487 12 487 6 q 487 0 484 0 l 484 0 q 466 0 443 1 q 419 2 393 2 l 393 2 q 367 2 343 1 q 319 0 302 0 z m 45 0 l 45 0 q 42 0 42 6 q 42 12 45 12 l 45 12 q 84 12 96 26 q 107 39 107 81 l 107 81 l 107 279 q 107 312 100 328 q 92 343 72 343 l 72 343 q 62 343 49 339 q 35 335 18 328 l 18 328 q 14 327 12 332 q 9 337 13 339 l 13 339 l 129 394 q 132 395 135 395 l 135 395 q 142 395 153 374 q 164 353 164 313 l 164 313 l 164 81 q 164 39 176 26 q 187 12 226 12 l 226 12 q 229 12 229 6 q 229 0 226 0 l 226 0 q 209 0 186 1 q 162 2 136 2 l 136 2 q 110 2 86 1 q 62 0 45 0 z"},"n":{"ha":517,"x_min":0,"x_max":517,"o":"m 314 0 l 314 0 q 311 0 311 6 q 311 12 314 12 l 314 12 q 353 12 365 26 q 376 39 376 81 l 376 81 l 376 243 q 376 303 354 331 q 332 358 284 358 l 284 358 q 248 358 210 335 q 172 312 145 272 l 145 272 l 141 284 q 185 343 229 371 q 272 399 317 399 l 317 399 q 372 399 403 369 q 433 338 433 277 l 433 277 l 433 81 q 433 39 445 26 q 456 12 495 12 l 495 12 q 498 12 498 6 q 498 0 495 0 l 495 0 q 478 0 455 1 q 431 2 405 2 l 405 2 q 379 2 355 1 q 331 0 314 0 z m 45 0 l 45 0 q 42 0 42 6 q 42 12 45 12 l 45 12 q 84 12 96 26 q 107 39 107 81 l 107 81 l 107 279 q 107 312 100 328 q 92 343 72 343 l 72 343 q 62 343 49 339 q 35 335 18 328 l 18 328 q 14 327 12 332 q 9 337 13 339 l 13 339 l 129 394 q 132 395 135 395 l 135 395 q 142 395 153 374 q 164 353 164 313 l 164 313 l 164 81 q 164 39 176 26 q 187 12 226 12 l 226 12 q 229 12 229 6 q 229 0 226 0 l 226 0 q 209 0 186 1 q 162 2 136 2 l 136 2 q 110 2 86 1 q 62 0 45 0 z"},"o":{"ha":479,"x_min":0,"x_max":479,"o":"m 231 -13 l 231 -13 q 172 -13 128 16 q 84 45 60 94 q 36 142 36 198 l 36 198 q 36 250 55 288 q 74 326 106 351 q 138 375 176 387 q 213 399 249 399 l 249 399 q 310 399 354 369 q 397 339 420 292 q 443 245 443 193 l 443 193 q 443 129 414 83 q 385 37 337 12 q 289 -13 231 -13 z m 260 6 l 260 6 q 313 6 344 44 q 375 81 375 165 l 375 165 q 375 228 355 277 q 334 325 298 353 q 262 380 216 380 l 216 380 q 163 380 133 341 q 103 302 103 229 l 103 229 q 103 168 123 117 q 143 66 179 36 q 214 6 260 6 z"},"p":{"ha":511,"x_min":0,"x_max":511,"o":"m 32 -275 l 32 -275 q 29 -275 29 -269 q 29 -263 32 -263 l 32 -263 q 71 -263 83 -250 q 95 -237 95 -194 l 95 -194 l 95 276 q 95 311 87 327 q 79 343 59 343 l 59 343 q 49 343 36 340 q 22 336 6 329 l 6 329 q 2 327 -1 333 q -4 338 0 340 l 0 340 l 111 393 q 114 394 118 394 l 118 394 q 132 394 142 372 q 151 349 151 305 l 151 305 l 151 -194 q 151 -222 159 -237 q 166 -252 188 -257 q 209 -263 251 -263 l 251 -263 q 253 -263 253 -269 q 253 -275 251 -275 l 251 -275 q 225 -275 193 -274 q 160 -273 124 -273 l 124 -273 q 98 -273 74 -274 q 49 -275 32 -275 z m 257 -13 l 257 -13 q 219 -13 190 -4 q 161 5 125 30 l 125 30 l 139 85 q 167 52 200 30 q 233 8 287 8 l 287 8 q 339 8 374 54 q 408 100 408 184 l 408 184 q 408 271 370 316 q 332 361 277 361 l 277 361 q 233 361 200 337 q 166 312 134 278 l 134 278 l 126 286 q 177 345 224 372 q 271 399 319 399 l 319 399 q 360 399 395 378 q 430 356 451 315 q 472 274 472 215 l 472 215 q 472 154 452 111 q 431 68 398 41 q 364 13 327 0 q 290 -13 257 -13 z"},"q":{"ha":488,"x_min":0,"x_max":488,"o":"m 192 -13 l 192 -13 q 151 -13 116 9 q 80 30 58 72 q 36 113 36 171 l 36 171 q 36 234 56 278 q 76 321 108 348 q 140 375 179 387 q 217 399 254 399 l 254 399 q 328 399 399 356 l 399 356 l 353 269 q 353 304 337 329 q 320 353 291 367 q 261 380 223 380 l 223 380 q 164 380 133 337 q 102 294 102 204 l 102 204 q 102 116 137 68 q 171 20 226 20 l 226 20 q 267 20 302 46 q 337 71 367 103 l 367 103 l 375 96 q 354 73 328 48 q 301 22 268 5 q 234 -13 192 -13 z m 274 -275 l 274 -275 q 272 -275 272 -269 q 272 -263 274 -263 l 274 -263 q 324 -263 339 -250 q 353 -237 353 -194 l 353 -194 l 353 352 l 453 388 q 457 390 459 386 q 461 381 457 379 l 457 379 q 434 366 422 347 q 409 328 409 295 l 409 295 l 409 -194 q 409 -237 421 -250 q 433 -263 473 -263 l 473 -263 q 475 -263 475 -269 q 475 -275 473 -275 l 473 -275 q 454 -275 431 -274 q 407 -273 380 -273 l 380 -273 q 351 -273 324 -274 q 297 -275 274 -275 z"},"r":{"ha":364,"x_min":0,"x_max":364,"o":"m 143 271 l 143 271 l 139 282 q 176 327 200 352 q 224 376 242 386 q 259 395 275 395 l 275 395 q 296 395 317 383 q 337 371 337 354 l 337 354 q 337 341 329 332 q 320 323 304 323 l 304 323 q 291 323 282 331 q 273 339 263 346 q 253 353 237 353 l 237 353 q 228 353 218 348 q 208 343 191 326 q 174 308 143 271 z m 45 0 l 45 0 q 42 0 42 6 q 42 12 45 12 l 45 12 q 84 12 96 26 q 107 39 107 81 l 107 81 l 107 279 q 107 312 100 328 q 92 343 72 343 l 72 343 q 62 343 49 339 q 35 335 18 328 l 18 328 q 14 327 12 332 q 9 337 13 339 l 13 339 l 129 394 q 132 395 135 395 l 135 395 q 142 395 153 374 q 164 353 164 313 l 164 313 l 164 81 q 164 53 171 38 q 178 22 199 17 q 220 12 261 12 l 261 12 q 265 12 265 6 q 265 0 261 0 l 261 0 q 237 0 205 1 q 172 2 136 2 l 136 2 q 110 2 86 1 q 62 0 45 0 z"},"s":{"ha":338,"x_min":0,"x_max":338,"o":"m 100 325 l 100 325 q 100 299 114 281 q 127 263 148 251 q 168 238 191 226 l 191 226 q 217 213 240 199 q 263 184 278 164 q 293 143 293 110 l 293 110 q 293 78 277 51 q 261 23 230 6 q 198 -11 152 -11 l 152 -11 q 127 -11 104 -4 q 81 2 56 19 l 56 19 q 54 21 52 24 q 50 27 50 31 l 50 31 l 48 109 q 48 112 54 113 q 59 113 60 110 l 60 110 q 72 76 90 54 q 108 31 131 20 q 154 8 180 8 l 180 8 q 212 8 230 24 q 247 40 246 71 l 246 71 q 245 100 231 118 q 217 136 197 149 q 176 161 154 172 l 154 172 q 129 184 107 198 q 84 211 70 232 q 55 253 55 287 l 55 287 q 55 326 75 351 q 95 375 126 387 q 157 398 191 398 l 191 398 q 210 398 228 395 q 246 392 264 383 l 264 383 q 273 380 273 372 l 273 372 q 273 356 272 339 q 271 321 271 299 l 271 299 q 271 297 265 297 q 259 297 259 299 l 259 299 q 259 322 243 340 q 227 358 203 369 q 179 379 155 379 l 155 379 q 131 379 116 366 q 100 353 100 325 z"},"t":{"ha":338,"x_min":0,"x_max":338,"o":"m 188 -12 l 188 -12 q 164 -12 142 -4 q 120 3 106 21 q 92 39 92 70 l 92 70 l 92 305 q 92 329 89 341 q 86 353 75 357 q 64 360 41 360 l 41 360 q 37 360 37 367 q 37 373 41 373 l 41 373 q 81 374 107 395 q 132 416 135 449 l 135 449 q 135 452 143 452 q 150 452 150 449 l 150 449 l 150 104 q 150 63 171 43 q 191 23 229 23 l 229 23 q 255 23 276 32 q 296 40 309 51 l 309 51 q 313 53 317 49 q 320 44 316 41 l 316 41 q 279 13 250 1 q 220 -12 188 -12 z m 285 337 l 285 337 q 246 347 210 350 q 174 353 133 353 l 133 353 l 133 375 q 173 375 210 378 q 247 381 289 385 l 289 385 q 291 385 294 378 q 296 371 296 361 l 296 361 q 296 354 293 345 q 289 336 285 337 z"},"u":{"ha":493,"x_min":0,"x_max":493,"o":"m 182 -8 l 182 -8 q 133 -8 105 24 q 76 55 76 115 l 76 115 l 76 268 q 76 307 70 325 q 63 342 46 342 l 46 342 q 32 342 12 332 l 12 332 q 8 331 6 337 q 3 343 7 344 l 7 344 l 118 394 q 120 395 122 395 l 122 395 q 125 395 129 393 q 132 390 132 387 l 132 387 l 132 148 q 132 89 153 61 q 174 32 216 32 l 216 32 q 254 32 293 55 q 331 78 360 117 l 360 117 l 365 106 q 319 47 275 20 q 230 -8 182 -8 z m 397 387 l 397 387 l 397 107 q 397 73 405 58 q 413 43 432 43 l 432 43 q 442 43 455 47 q 467 50 485 57 l 485 57 q 490 59 492 54 q 494 48 490 46 l 490 46 l 373 -9 q 371 -10 369 -10 l 369 -10 q 361 -10 351 12 q 341 33 341 73 l 341 73 l 341 268 q 341 307 335 325 q 328 342 311 342 l 311 342 q 297 342 277 332 l 277 332 q 273 331 271 337 q 269 343 273 344 l 273 344 l 384 394 q 386 395 387 395 l 387 395 q 390 395 394 393 q 397 390 397 387 z"},"v":{"ha":434,"x_min":0,"x_max":434,"o":"m 431 386 l 431 386 q 433 386 433 380 q 433 374 431 374 l 431 374 q 406 374 389 359 q 371 343 354 301 l 354 301 l 229 1 q 228 -3 219 -3 q 209 -3 207 1 l 207 1 l 67 303 q 46 348 33 361 q 19 374 0 374 l 0 374 q -3 374 -3 380 q -3 386 0 386 l 0 386 q 15 386 33 385 q 50 384 69 384 l 69 384 q 103 384 128 385 q 153 386 174 386 l 174 386 q 177 386 177 380 q 177 374 174 374 l 174 374 q 143 374 125 367 q 107 359 118 335 l 118 335 l 246 63 l 217 22 l 334 306 q 349 342 332 358 q 314 374 262 374 l 262 374 q 260 374 260 380 q 260 386 262 386 l 262 386 q 286 386 308 385 q 329 384 363 384 l 363 384 q 384 384 398 385 q 411 386 431 386 z"},"w":{"ha":671,"x_min":0,"x_max":671,"o":"m 443 1 l 443 1 l 303 303 q 283 348 270 361 q 257 374 238 374 l 238 374 q 236 374 236 380 q 236 386 238 386 l 238 386 q 253 386 270 385 q 287 384 305 384 l 305 384 q 339 384 364 385 q 388 386 408 386 l 408 386 q 411 386 411 380 q 411 374 408 374 l 408 374 q 378 374 361 366 q 343 358 354 335 l 354 335 l 482 62 l 454 22 l 570 306 q 585 342 568 358 q 551 374 498 374 l 498 374 q 496 374 496 380 q 496 386 498 386 l 498 386 q 522 386 544 385 q 565 384 599 384 l 599 384 q 621 384 634 385 q 647 386 666 386 l 666 386 q 669 386 669 380 q 669 374 666 374 l 666 374 q 642 374 625 359 q 608 343 590 301 l 590 301 l 465 1 q 464 -3 455 -3 q 445 -3 443 1 z m 207 1 l 207 1 l 67 303 q 46 348 33 361 q 19 374 0 374 l 0 374 q -3 374 -3 380 q -3 386 0 386 l 0 386 q 15 386 33 385 q 50 384 69 384 l 69 384 q 101 384 126 385 q 150 386 172 386 l 172 386 q 175 386 175 380 q 175 374 172 374 l 172 374 q 140 374 124 366 q 107 358 118 335 l 118 335 l 247 62 l 217 22 l 326 285 l 343 274 l 229 1 q 228 -3 219 -3 q 209 -3 207 1 z"},"x":{"ha":439,"x_min":0,"x_max":439,"o":"m 259 0 l 259 0 q 256 0 256 6 q 256 12 259 12 l 259 12 q 289 12 292 20 q 295 28 280 51 l 280 51 l 113 303 q 86 343 60 359 q 34 374 16 374 l 16 374 q 14 374 14 380 q 14 386 16 386 l 16 386 q 31 386 47 385 q 63 384 78 384 l 78 384 q 111 384 136 385 q 161 386 181 386 l 181 386 q 183 386 183 380 q 183 374 181 374 l 181 374 q 153 374 149 366 q 145 358 161 335 l 161 335 l 328 83 q 355 42 382 27 q 409 12 427 12 l 427 12 q 429 12 429 6 q 429 0 427 0 l 427 0 q 412 0 395 1 q 378 2 363 2 l 363 2 q 329 2 305 1 q 280 0 259 0 z m 13 0 l 13 0 q 11 0 11 6 q 11 12 13 12 l 13 12 q 38 12 69 31 q 99 49 126 86 l 126 86 l 206 197 l 218 187 l 144 80 q 129 58 125 43 q 121 27 134 20 q 146 12 181 12 l 181 12 q 184 12 184 6 q 184 0 181 0 l 181 0 q 158 0 137 1 q 115 2 81 2 l 81 2 q 59 2 46 1 q 32 0 13 0 z m 300 300 l 221 193 l 211 203 l 281 306 q 305 342 301 358 q 297 374 244 374 l 244 374 q 242 374 242 380 q 242 386 244 386 l 244 386 q 268 386 290 385 q 311 384 345 384 l 345 384 q 367 384 381 385 q 394 386 413 386 l 413 386 q 415 386 415 380 q 415 374 413 374 l 413 374 q 388 374 359 357 q 329 339 300 300 l 300 300 z"},"y":{"ha":435,"x_min":0,"x_max":435,"o":"m 431 386 l 431 386 q 434 386 434 380 q 434 374 431 374 l 431 374 q 406 374 388 357 q 370 340 354 297 l 354 297 l 232 -28 q 196 -124 163 -179 q 130 -235 95 -258 q 59 -281 16 -281 l 16 -281 q -5 -281 -20 -271 q -35 -262 -35 -242 l -35 -242 q -35 -227 -25 -219 q -16 -212 -4 -212 l -4 -212 q 16 -212 26 -218 q 36 -224 46 -230 q 56 -236 72 -236 l 72 -236 q 96 -236 119 -213 q 141 -191 167 -137 q 193 -83 228 10 l 228 10 l 227 -18 l 69 303 q 47 347 35 361 q 22 374 3 374 l 3 374 q 1 374 1 380 q 1 386 3 386 l 3 386 q 19 386 37 385 q 54 384 70 384 l 70 384 q 103 384 128 385 q 153 386 173 386 l 173 386 q 175 386 175 380 q 175 374 173 374 l 173 374 q 141 374 125 366 q 108 358 120 335 l 120 335 l 257 53 l 234 12 l 332 294 q 347 339 332 357 q 316 374 263 374 l 263 374 q 261 374 261 380 q 261 386 263 386 l 263 386 q 287 386 309 385 q 330 384 364 384 l 364 384 q 386 384 400 385 q 413 386 431 386 z"},"z":{"ha":405,"x_min":0,"x_max":405,"o":"m 42 12 l 42 12 l 282 366 q 286 373 277 373 l 277 373 q 204 373 159 367 q 114 360 90 341 q 65 322 53 284 l 53 284 q 52 281 47 283 q 41 284 42 286 l 42 286 l 76 415 q 77 417 83 417 q 89 416 87 414 l 87 414 q 83 397 95 392 q 106 386 135 386 l 135 386 q 171 386 224 386 q 276 386 347 386 l 347 386 q 351 386 354 382 q 357 378 355 374 l 355 374 l 119 22 q 115 15 124 15 l 124 15 q 193 15 235 18 q 276 21 299 31 q 322 40 335 60 q 347 80 358 114 l 358 114 q 359 116 364 116 q 369 116 369 114 l 369 114 l 367 11 q 367 7 365 4 q 362 0 358 0 l 358 0 q 311 0 258 0 q 205 0 152 0 q 99 0 49 0 l 49 0 q 45 0 43 4 q 40 8 42 12 z"},"{":{"ha":289,"x_min":0,"x_max":289,"o":"m 32 298 l 32 298 q 29 298 29 305 q 29 311 32 311 l 32 311 q 68 316 85 349 q 101 382 107 431 q 112 479 112 529 l 112 529 q 112 592 118 631 q 123 670 139 690 q 154 710 181 718 q 208 725 250 725 l 250 725 q 254 725 254 719 q 254 713 250 713 l 250 713 q 214 713 195 686 q 175 658 173 607 l 173 607 q 172 527 169 476 q 166 424 157 393 q 147 362 125 342 q 103 322 64 305 l 64 305 q 103 287 125 267 q 147 246 157 214 q 166 182 169 131 q 172 80 173 1 l 173 1 q 175 -50 195 -77 q 214 -105 250 -105 l 250 -105 q 254 -105 254 -111 q 254 -117 250 -117 l 250 -117 q 206 -117 179 -109 q 152 -102 138 -81 q 123 -60 118 -21 q 112 17 112 80 l 112 80 q 112 131 107 180 q 101 228 85 261 q 68 294 32 298 z"},"|":{"ha":168,"x_min":0,"x_max":168,"o":"m 66 -154 l 66 -154 l 66 731 q 66 736 76 738 q 86 739 96 738 q 105 736 105 731 l 105 731 l 105 -154 q 105 -159 96 -160 q 86 -162 76 -160 q 66 -159 66 -154 z"},"}":{"ha":283,"x_min":0,"x_max":283,"o":"m 251 298 l 251 298 q 254 298 254 305 q 254 311 251 311 l 251 311 q 215 316 199 349 q 182 382 177 431 q 171 479 171 529 l 171 529 q 171 592 166 631 q 160 670 145 690 q 129 710 103 718 q 76 725 33 725 l 33 725 q 29 725 29 719 q 29 713 33 713 l 33 713 q 69 713 89 686 q 109 658 110 607 l 110 607 q 112 527 115 476 q 117 424 127 393 q 136 362 158 342 q 180 322 219 305 l 219 305 q 180 287 158 267 q 136 246 127 214 q 117 182 115 131 q 112 80 110 1 l 110 1 q 109 -50 89 -77 q 69 -105 33 -105 l 33 -105 q 29 -105 29 -111 q 29 -117 33 -117 l 33 -117 q 77 -117 104 -109 q 131 -102 146 -81 q 160 -60 166 -21 q 171 17 171 80 l 171 80 q 171 131 177 180 q 182 228 199 261 q 215 294 251 298 z"},"~":{"ha":443,"x_min":0,"x_max":443,"o":"m 313 198 l 313 198 q 345 198 361 211 q 377 223 389 236 l 389 236 q 391 238 395 235 q 398 232 396 229 l 396 229 q 372 199 355 183 q 338 166 323 160 q 307 153 290 153 l 290 153 q 261 153 236 162 q 211 171 186 180 q 160 189 130 189 l 130 189 q 100 189 87 179 q 74 168 55 151 l 55 151 q 54 150 51 153 q 47 155 48 158 l 48 158 q 59 172 76 190 q 93 207 115 221 q 137 234 161 234 l 161 234 q 184 234 208 225 q 232 216 259 207 q 286 198 313 198 z"}}}
